<?xml version="1.0" encoding="utf-8"?>
<!-- Generator: Adobe Illustrator 26.5.2, SVG Export Plug-In . SVG Version: 6.00 Build 0)  -->
<svg version="1.1" id="Capa_1" xmlns="http://www.w3.org/2000/svg" xmlns:xlink="http://www.w3.org/1999/xlink" x="0px" y="0px"
	 viewBox="0 0 96.37 150" style="enable-background:new 0 0 96.37 150;" xml:space="preserve">
<style type="text/css">
	.st0{fill:#C56162;}
	.st1{fill:#EAD680;}
	.st2{fill:#FDFDFD;}
	.st3{fill:#FFFFFF;}
</style>
<rect width="96.37" height="150"/>
<rect y="-189.96" width="96.37" height="150"/>
<g>
	<g>
		<path class="st0" d="M74.74,95.63c-0.05-0.15-0.11-0.29-0.18-0.43c-0.06-0.14-0.14-0.27-0.23-0.39l-0.04-0.07
			c-0.1-0.14-0.2-0.26-0.32-0.38l-0.03-0.02c-0.05-0.05-0.1-0.1-0.15-0.15c-0.05-0.05-0.09-0.07-0.13-0.1l-0.08-0.06
			c-0.03-0.03-0.07-0.05-0.1-0.08c-0.13-0.08-0.27-0.16-0.4-0.22c-0.05-0.03-0.09-0.05-0.14-0.06l-0.08-0.04
			c-0.05-0.02-0.1-0.04-0.15-0.05c-0.07-0.02-0.14-0.05-0.21-0.06c-0.11-0.03-0.2-0.05-0.28-0.06c-0.07-0.01-0.12-0.02-0.19-0.03
			h-0.07c-0.1-0.01-0.19-0.01-0.24-0.01c-0.12,0-0.24,0-0.36,0.02c-0.12,0.01-0.24,0.03-0.36,0.06l-33.88,8.16
			c-0.05,0.01-0.09,0.02-0.14,0.04c-0.12,0.03-0.24,0.08-0.35,0.13l-0.17,0.08c-0.07,0.03-0.11,0.06-0.16,0.09
			c-0.04,0.03-0.08,0.05-0.12,0.08c-0.59,0.39-1.04,0.97-1.26,1.64l-0.96,2.83c-0.05,0.18-0.1,0.35-0.12,0.51
			c-0.08,0.48-0.05,0.96,0.1,1.43c0.06,0.21,0.15,0.43,0.26,0.63c0.06,0.1,0.12,0.19,0.18,0.29l0.05,0.06
			c0.06,0.07,0.11,0.14,0.17,0.21c0.09,0.09,0.17,0.18,0.26,0.26h0.01l0.07,0.07c0.04,0.03,0.07,0.06,0.11,0.08
			c0.04,0.04,0.07,0.06,0.11,0.08c0.08,0.06,0.15,0.11,0.22,0.15l0.06,0.03c0.09,0.05,0.18,0.09,0.28,0.13
			c0.05,0.03,0.09,0.04,0.13,0.06c0.07,0.03,0.11,0.04,0.15,0.05c0.16,0.05,0.31,0.09,0.48,0.11c0.11,0.02,0.22,0.03,0.32,0.04
			c0.08,0.01,0.12,0,0.17,0h34.86c0.11,0,0.18-0.01,0.24-0.02c0.11-0.01,0.19-0.02,0.27-0.04c0.06-0.01,0.08-0.02,0.1-0.02
			c0.09-0.02,0.15-0.04,0.21-0.06c0.06-0.02,0.11-0.04,0.15-0.05c0.04-0.02,0.07-0.03,0.1-0.04c0.05-0.02,0.08-0.03,0.11-0.05
			c0.08-0.03,0.13-0.06,0.18-0.08c0.17-0.09,0.33-0.2,0.48-0.31c0.05-0.05,0.1-0.08,0.14-0.12c0.05-0.05,0.1-0.09,0.14-0.13
			c0.05-0.06,0.11-0.11,0.16-0.17v-0.15h0.12c0.06-0.09,0.13-0.18,0.18-0.27c0.04-0.05,0.07-0.1,0.09-0.15
			c0.05-0.09,0.07-0.14,0.09-0.19l0.1-0.24c0.07-0.16,0.11-0.34,0.14-0.52c0.02-0.09,0.03-0.18,0.04-0.28
			c0.01-0.1,0.02-0.19,0.02-0.28V96.6C74.89,96.26,74.84,95.94,74.74,95.63z M48.15,105.86c0,0.09-0.02,0.18-0.03,0.27
			c-0.01,0.01-0.01,0.03-0.01,0.04c-0.02,0.1-0.04,0.2-0.08,0.3c-0.23,0.73-0.72,1.35-1.37,1.73c-0.07,0.05-0.15,0.08-0.22,0.12
			c-0.11,0.05-0.21,0.1-0.32,0.13c-0.09,0.04-0.19,0.07-0.29,0.09c-0.07,0.02-0.13,0.03-0.2,0.04c-0.17,0.03-0.35,0.05-0.53,0.05
			c-1.69,0-3.07-1.38-3.07-3.08v-0.19c0-0.03,0-0.06,0.01-0.09c0-0.02,0.01-0.03,0.01-0.05l0.02-0.16c0.03-0.17,0.07-0.33,0.12-0.49
			c0,0,0-0.01,0-0.02c0.01-0.02,0.02-0.05,0.03-0.08c0.01-0.01,0.01-0.03,0.02-0.04c0.01-0.03,0.02-0.05,0.03-0.08
			c0.01-0.02,0.02-0.05,0.03-0.07c0.02-0.03,0.03-0.06,0.04-0.08c0.06-0.12,0.12-0.23,0.19-0.33c0.04-0.05,0.08-0.12,0.12-0.17
			c0.05-0.07,0.1-0.14,0.16-0.2c0.08-0.1,0.17-0.18,0.26-0.26c0.09-0.08,0.19-0.16,0.29-0.23c0.05-0.04,0.11-0.07,0.16-0.1
			c0.01-0.01,0.02-0.01,0.03-0.02c0.02-0.01,0.03-0.02,0.04-0.02c0.04-0.02,0.07-0.04,0.11-0.06c0.04-0.02,0.08-0.03,0.11-0.05
			c0.07-0.04,0.14-0.07,0.22-0.09c0.08-0.03,0.16-0.06,0.25-0.08c0.02-0.01,0.03-0.02,0.05-0.01c0.1-0.04,0.2-0.06,0.3-0.07
			c0.01-0.01,0.02-0.01,0.03-0.01c0.05-0.01,0.09-0.01,0.14-0.01c0.03-0.01,0.07-0.01,0.1-0.01c0.06-0.01,0.13-0.01,0.2-0.01
			c0.09,0,0.17,0,0.26,0.01c0.02,0,0.05,0.01,0.07,0.01c0.03,0,0.06,0,0.1,0.01c0.06,0.01,0.13,0.02,0.19,0.03
			c0.01,0,0.01,0,0.02,0.01c0.1,0.02,0.2,0.05,0.3,0.08c0.05,0.01,0.1,0.03,0.14,0.05c0.03,0.01,0.06,0.02,0.09,0.03
			c0.02,0.01,0.04,0.02,0.06,0.03c0.14,0.06,0.27,0.13,0.39,0.21c0.07,0.04,0.14,0.08,0.2,0.14c0.06,0.04,0.12,0.09,0.18,0.14
			c0.08,0.07,0.15,0.14,0.22,0.21c0.17,0.17,0.32,0.36,0.43,0.57c0.03,0.04,0.05,0.08,0.07,0.12c0,0,0.01,0,0.01,0.01
			c0.03,0.07,0.06,0.13,0.09,0.19c0.02,0.06,0.05,0.12,0.07,0.19c0.05,0.14,0.09,0.29,0.12,0.44c0.01,0.01,0.01,0.01,0.01,0.02
			c0.01,0.04,0.02,0.09,0.02,0.13v0.05c0.01,0.02,0.01,0.05,0.01,0.07c0.01,0.02,0.01,0.04,0.01,0.05c0.01,0.09,0.01,0.19,0.01,0.28
			C48.17,105.66,48.16,105.76,48.15,105.86z"/>
	</g>
	<g>
		<path class="st1" d="M48.17,105.55c0,1.7-1.38,3.07-3.07,3.07c-1.7,0-3.07-1.38-3.07-3.07c0-1.05,0.53-1.98,1.33-2.54
			c0.5-0.34,1.1-0.54,1.74-0.54c0.87,0,1.66,0.36,2.22,0.96C47.86,103.98,48.17,104.72,48.17,105.55z"/>
	</g>
	<path class="st2" d="M47.68,59.7L47.68,59.7z"/>
	<path class="st2" d="M46.8,60.44L46.8,60.44z"/>
	<g>
		<path d="M73.62,91.56c0.17-0.27,0.33-0.55,0.51-0.86c1.58-2.83,2.43-5.88,2.5-9.03c0.19-3.8-0.31-7.72-0.54-9.22
			c-0.69-6.17-1.03-12.17-1.03-17.81c0-2.88,0.07-5.77,0.2-8.13c0.01-0.13,0.01-0.21,0.01-0.22c0.07-4.19-2.15-6.84-6.08-7.27
			c-0.28-0.02-0.53-0.04-0.75-0.04c-1.88,0-3.65,0.82-4.93,2.25c-0.46-2.68-0.67-4.15-0.67-4.23c-0.44-3.49-3.41-6.12-6.9-6.12
			c-0.27,0-0.55,0.01-0.85,0.04c-3.63,0.46-6.07,3.48-6.06,7.51c0,0.39,0.02,1.13,0.1,2.17c-0.31-0.6-0.65-1.26-1.04-2.01
			l-0.28-0.51l-0.05-0.07c-1.46-2.22-3.54-3.44-5.84-3.44c-1.18,0-2.37,0.32-3.44,0.93c-1.66,0.92-4.22,3.31-2.79,9.01
			c0.25,0.94,1.72,5.9,7.35,12.86c-2.83-0.43-5.82-0.24-8.52,0.57c-4.94,1.46-8.87,4.74-11.06,9.25c-1.28,2.65-0.74,5.74,1.31,7.79
			c-1.09,0.61-2.01,1.49-2.65,2.57c-0.64,1.11-0.98,2.35-0.98,3.61c0,3.33,0.86,6.54,2.54,9.55c1.5,2.72,3.64,5.13,6.33,7.17
			c1.39,1.04,2.88,1.96,4.43,2.74c-0.74,0.62-1.31,1.44-1.63,2.39l-0.95,2.84c-0.56,1.66-0.29,3.44,0.73,4.87
			c1.03,1.42,2.62,2.24,4.38,2.24h34.74c2.97,0,5.39-2.42,5.39-5.39V96.6C77.1,94.37,75.68,92.34,73.62,91.56z M31.46,95.96
			c-2.42-1.84-4.33-4-5.68-6.42c-1.48-2.64-2.22-5.46-2.22-8.38c0-0.84,0.22-1.66,0.64-2.37c0.84-1.43,2.39-2.32,4.05-2.32
			c1.68,0,3.13,0.73,3.79,1.91l0.26,0.5c0.1,0.17,0.19,0.41,0.25,0.65c0,0.05,0.01,0.09,0.02,0.11l0.01,0.08
			c0.05,0.26,0.11,0.46,0.16,0.6c0.06,0.19,0.13,0.38,0.22,0.59c0.41,0.96,1.08,1.82,1.93,2.51c0.27,0.21,0.57,0.42,0.9,0.62
			c1.28,0.76,2.8,1.16,4.39,1.16c0.58,0,1.21-0.06,1.87-0.19c2.41-0.49,4.49-1.85,5.72-3.73c0.56-0.87,0.86-1.65,1.01-2.62
			c0.07-0.52,0.11-1.14,0.11-1.81l-0.04-0.5c-0.05-0.54-0.13-1.1-0.25-1.63l-0.02-0.1c-0.03-0.15-0.07-0.28-0.11-0.46
			c-0.02-0.07-0.04-0.14-0.07-0.21v-0.08l-0.04-0.04c-0.79-1.95-2.34-3.56-4.35-4.54c-1.66-0.79-3.51-1.08-5.09-0.86
			c-0.46,0.06-0.85,0.15-1.22,0.26c-1.81,0.53-3.28,1.73-4.15,3.38c-0.25,0.48-0.57,0.9-0.95,1.27l-0.12,0.1
			c-0.04,0.03-0.09,0.07-0.12,0.1c-0.18,0.13-0.35,0.26-0.51,0.37c-0.36,0.22-0.75,0.39-1.17,0.5c-0.17,0.04-0.31,0.07-0.47,0.1
			c-0.2,0.03-0.4,0.05-0.65,0.05c-0.65,0-1.29-0.15-1.9-0.45c-1.05-0.5-1.84-1.39-2.22-2.5c-0.39-1.11-0.32-2.31,0.19-3.36
			c1.88-3.89,5.27-6.73,9.57-8c1.57-0.46,3.19-0.7,4.83-0.7c0.96,0,1.91,0.08,2.82,0.24c0,0,0.35,0.06,0.87,0.16
			c0.17,0.03,0.35,0.08,0.55,0.13l0.11,0.03c0.08,0.02,0.16,0.04,0.23,0.06c0.19,0.04,0.34,0.09,0.51,0.14
			c0.48,0.14,0.98,0.31,1.44,0.5c0.04,0.03,0.09,0.05,0.15,0.08l0.08,0.03c0.69,0.34,1.54,0.87,2.43,1.52
			c0.34,0.29,0.84,0.33,1.17,0c0.26-0.32,0.19-0.82-0.15-1.14c-0.01,0-0.04-0.03-0.11-0.09c-1.99-1.75-3.16-2.95-3.81-3.67
			l-0.2-0.23c-0.15-0.15-0.29-0.31-0.41-0.47L45.6,56.7c-5.83-6.96-7.33-11.87-7.57-12.78c-0.54-2.16-0.7-5.01,1.61-6.31
			c1.1-0.61,2.23-0.79,3.28-0.5c0.18,0.05,0.33,0.1,0.47,0.16l0.09,0.04h0.01c0.21,0.08,0.42,0.2,0.66,0.37
			c0.09,0.05,0.16,0.1,0.23,0.15c0.15,0.12,0.3,0.25,0.48,0.43c0.14,0.13,0.28,0.29,0.45,0.5c0.18,0.21,0.32,0.4,0.43,0.58
			l0.22,0.37c0.83,1.67,1.78,3.46,2.81,5.32l0.35,0.63c0.04,0.06,0.07,0.12,0.12,0.21l0.05,0.08c0.03,0.07,0.07,0.13,0.1,0.2
			l0.1,0.18c0.04,0.07,0.07,0.14,0.11,0.21l1.04,2.02c1.45,2.83,3.88,7.56,5.96,10.64c0.2,0.29,0.49,0.46,0.77,0.46
			c0.26,0,0.5-0.14,0.63-0.36c0.15-0.3,0.11-0.66-0.12-1.01c-0.62-0.95-1.31-2.14-2.04-3.55c-1.6-3.12-2.89-6.45-3.55-9.14
			l-0.03-0.1c-0.06-0.25-0.11-0.49-0.16-0.72l0.01-0.04l-0.03-0.04c-0.58-3.36-0.64-5.49-0.64-6.25c0-2.77,1.58-4.83,3.94-5.13
			c0.22-0.02,0.4-0.03,0.56-0.03c1.23,0,2.42,0.51,3.28,1.4c0.18,0.19,0.35,0.4,0.51,0.64c0.06,0.1,0.11,0.18,0.13,0.21l0.06,0.12
			c0.03,0.05,0.06,0.1,0.1,0.19l0.04,0.09c0.03,0.07,0.06,0.13,0.09,0.21c0.03,0.06,0.04,0.11,0.07,0.18l0.03,0.11
			c0.1,0.31,0.16,0.59,0.19,0.83c0.01,0.11,0.28,2.11,0.86,5.34c0.03,0.15,0.05,0.3,0.08,0.45c0.02,0.16,0.05,0.32,0.07,0.47
			c0.08,0.49,0.16,0.99,0.26,1.48l0.01,0.1c0.01,0.04,0.01,0.07,0.01,0.09l0.01,0.08c0.01,0.03,0.02,0.07,0.02,0.11
			c0.04,0.21,0.08,0.52,0.14,0.89l0.02,0.13c0.32,2.25,1.01,6.94,1.8,9.58c0.08,0.49,0.46,0.75,0.79,0.75
			c0.19,0,0.37-0.08,0.51-0.24c0.09-0.1,0.22-0.32,0.17-0.7c-0.03-0.2-0.07-0.41-0.11-0.65c-0.04-0.24-0.08-0.5-0.12-0.79
			c-0.38-2.18-1-5.84-0.85-8.67c0.02-0.41,0.09-0.81,0.21-1.18c0.01-0.03,0.03-0.06,0.03-0.1c0.01-0.02,0.02-0.05,0.03-0.08
			c0.02-0.03,0.03-0.06,0.04-0.1c0.03-0.08,0.06-0.15,0.09-0.2l0.19-0.36c0.09-0.16,0.2-0.33,0.36-0.54
			c0.06-0.09,0.12-0.16,0.18-0.24c0.3-0.33,0.6-0.6,0.92-0.82c0.2-0.13,0.43-0.26,0.7-0.37c0.68-0.27,1.45-0.37,2.07-0.28
			c2.68,0.29,3.97,1.88,3.92,4.85v0.1c-0.13,2.3-0.21,5.24-0.21,8.27c0,5.71,0.36,11.8,1.05,18.11c0.17,1.13,0.72,5.12,0.54,8.84
			c-0.08,2.77-0.82,5.45-2.21,7.95c-0.17,0.3-0.36,0.61-0.56,0.92l-0.19,0.3c-0.18,0.26-0.42,0.45-0.71,0.58
			c-0.09,0.03-0.17,0.06-0.27,0.09l-32.14,7.69l-0.06,0.02c-0.47,0.1-0.95,0.05-1.39-0.13l-0.03-0.04h-0.05
			C34.77,98.17,33.04,97.16,31.46,95.96z M33.16,75.93c1.07-0.66,1.93-1.6,2.52-2.73c0.57-1.09,1.51-1.85,2.7-2.2
			c1.42-0.42,3.08-0.26,4.58,0.46c1.45,0.7,2.58,1.85,3.16,3.25c0.01,0.01,0.02,0.04,0.02,0.06c0.01,0.03,0.02,0.07,0.03,0.1
			c0.16,0.62,0.27,1.26,0.31,1.91l0.01,0.17c0,0.52-0.04,0.98-0.1,1.34c-0.09,0.61-0.28,1.1-0.64,1.68
			c-0.87,1.34-2.39,2.31-4.17,2.68c-0.46,0.09-0.93,0.13-1.4,0.13c-2.27,0-4.28-1.13-5.01-2.82c-0.1-0.25-0.18-0.5-0.23-0.76
			c-0.12-0.57-0.29-1.06-0.52-1.48l-0.27-0.51C33.87,76.73,33.54,76.3,33.16,75.93z M74.89,107.57c0,0.09-0.01,0.18-0.02,0.28
			c-0.01,0.1-0.02,0.19-0.04,0.28c-0.03,0.18-0.07,0.36-0.14,0.52l-0.1,0.24c-0.02,0.05-0.04,0.1-0.09,0.19
			c-0.02,0.05-0.05,0.1-0.09,0.15c-0.05,0.09-0.12,0.18-0.18,0.27h-0.12v0.15c-0.05,0.06-0.11,0.11-0.16,0.17
			c-0.04,0.04-0.09,0.08-0.14,0.13c-0.04,0.04-0.09,0.07-0.14,0.12c-0.15,0.11-0.31,0.22-0.48,0.31c-0.05,0.02-0.1,0.05-0.18,0.08
			c-0.03,0.02-0.06,0.03-0.11,0.05c-0.03,0.01-0.06,0.02-0.1,0.04c-0.04,0.01-0.09,0.03-0.15,0.05c-0.06,0.02-0.12,0.04-0.21,0.06
			c-0.02,0-0.04,0.01-0.1,0.02c-0.08,0.02-0.16,0.03-0.27,0.04c-0.06,0.01-0.13,0.02-0.24,0.02H36.97c-0.05,0-0.09,0.01-0.17,0
			c-0.1-0.01-0.21-0.02-0.32-0.04c-0.17-0.02-0.32-0.06-0.48-0.11c-0.04-0.01-0.08-0.02-0.15-0.05c-0.04-0.02-0.08-0.03-0.13-0.06
			c-0.1-0.04-0.19-0.08-0.28-0.13l-0.06-0.03c-0.07-0.04-0.14-0.09-0.22-0.15c-0.04-0.02-0.07-0.04-0.11-0.08
			c-0.04-0.02-0.07-0.05-0.11-0.08l-0.07-0.07h-0.01c-0.09-0.08-0.17-0.17-0.26-0.26c-0.06-0.07-0.11-0.14-0.17-0.21l-0.05-0.06
			c-0.06-0.1-0.12-0.19-0.18-0.29c-0.11-0.2-0.2-0.42-0.26-0.63c-0.15-0.47-0.18-0.95-0.1-1.43c0.02-0.16,0.07-0.33,0.12-0.51
			l0.96-2.83c0.22-0.67,0.67-1.25,1.26-1.64c0.04-0.03,0.08-0.05,0.12-0.08c0.05-0.03,0.09-0.06,0.16-0.09l0.17-0.08
			c0.11-0.05,0.23-0.1,0.35-0.13c0.05-0.02,0.09-0.03,0.14-0.04L71,93.5c0.12-0.03,0.24-0.05,0.36-0.06
			c0.12-0.02,0.24-0.02,0.36-0.02c0.05,0,0.14,0,0.24,0.01h0.07c0.07,0.01,0.12,0.02,0.19,0.03c0.08,0.01,0.17,0.03,0.28,0.06
			c0.07,0.01,0.14,0.04,0.21,0.06c0.05,0.01,0.1,0.03,0.15,0.05l0.08,0.04c0.05,0.01,0.09,0.03,0.14,0.06
			c0.13,0.06,0.27,0.14,0.4,0.22c0.03,0.03,0.07,0.05,0.1,0.08l0.08,0.06c0.04,0.03,0.08,0.05,0.13,0.1c0.05,0.05,0.1,0.1,0.15,0.15
			l0.03,0.02c0.12,0.12,0.22,0.24,0.32,0.38l0.04,0.07c0.09,0.12,0.17,0.25,0.23,0.39c0.07,0.14,0.13,0.28,0.18,0.43
			c0.1,0.31,0.15,0.63,0.15,0.97V107.57z"/>
		<path class="st3" d="M74.23,81.59c-0.08,2.77-0.82,5.45-2.21,7.95c-0.17,0.3-0.36,0.61-0.56,0.92l-0.19,0.3
			c-0.18,0.26-0.42,0.45-0.71,0.58c-0.09,0.03-0.17,0.06-0.27,0.09l-32.14,7.69l-0.06,0.02c-0.47,0.1-0.95,0.05-1.39-0.13
			l-0.03-0.04h-0.05c-1.85-0.8-3.58-1.81-5.16-3.01c-2.42-1.84-4.33-4-5.68-6.42c-1.48-2.64-2.22-5.46-2.22-8.38
			c0-0.84,0.22-1.66,0.64-2.37c0.84-1.43,2.39-2.32,4.05-2.32c1.68,0,3.13,0.73,3.79,1.91l0.26,0.5c0.1,0.17,0.19,0.41,0.25,0.65
			c0,0.05,0.01,0.09,0.02,0.11l0.01,0.08c0.05,0.26,0.11,0.46,0.16,0.6c0.06,0.19,0.13,0.38,0.22,0.59
			c0.41,0.96,1.08,1.82,1.93,2.51c0.27,0.21,0.57,0.42,0.9,0.62c1.28,0.76,2.8,1.16,4.39,1.16c0.58,0,1.21-0.06,1.87-0.19
			c2.41-0.49,4.49-1.85,5.72-3.73c0.56-0.87,0.86-1.65,1.01-2.62c0.07-0.52,0.11-1.14,0.11-1.81l-0.04-0.5
			c-0.05-0.54-0.13-1.1-0.25-1.63l-0.02-0.1c-0.03-0.15-0.07-0.28-0.11-0.46c-0.02-0.07-0.04-0.14-0.07-0.21v-0.08l-0.04-0.04
			c-0.79-1.95-2.34-3.56-4.35-4.54c-1.66-0.79-3.51-1.08-5.09-0.86c-0.46,0.06-0.85,0.15-1.22,0.26c-1.81,0.53-3.28,1.73-4.15,3.38
			c-0.25,0.48-0.57,0.9-0.95,1.27l-0.12,0.1c-0.04,0.03-0.09,0.07-0.12,0.1c-0.18,0.13-0.35,0.26-0.51,0.37
			c-0.36,0.22-0.75,0.39-1.17,0.5c-0.17,0.04-0.31,0.07-0.47,0.1c-0.2,0.03-0.4,0.05-0.65,0.05c-0.65,0-1.29-0.15-1.9-0.45
			c-1.05-0.5-1.84-1.39-2.22-2.5c-0.39-1.11-0.32-2.31,0.19-3.36c1.88-3.89,5.27-6.73,9.57-8c1.57-0.46,3.19-0.7,4.83-0.7
			c0.96,0,1.91,0.08,2.82,0.24c0,0,0.35,0.06,0.87,0.16c0.17,0.03,0.35,0.08,0.55,0.13l0.11,0.03c0.08,0.02,0.16,0.04,0.23,0.06
			c0.19,0.04,0.34,0.09,0.51,0.14c0.48,0.14,0.98,0.31,1.44,0.5c0.04,0.03,0.09,0.05,0.15,0.08l0.08,0.03
			c0.69,0.34,1.54,0.87,2.43,1.52c0.34,0.29,0.84,0.33,1.17,0c0.26-0.32,0.19-0.82-0.15-1.14c-0.01,0-0.04-0.03-0.11-0.09
			c-1.99-1.75-3.16-2.95-3.81-3.67l-0.2-0.23c-0.15-0.15-0.29-0.31-0.41-0.47L45.6,56.7c-5.83-6.96-7.33-11.87-7.57-12.78
			c-0.54-2.16-0.7-5.01,1.61-6.31c1.1-0.61,2.23-0.79,3.28-0.5c0.18,0.05,0.33,0.1,0.47,0.16l0.09,0.04h0.01
			c0.21,0.08,0.42,0.2,0.66,0.37c0.09,0.05,0.16,0.1,0.23,0.15c0.15,0.12,0.3,0.25,0.48,0.43c0.14,0.13,0.28,0.29,0.45,0.5
			c0.18,0.21,0.32,0.4,0.43,0.58l0.22,0.37c0.83,1.67,1.78,3.46,2.81,5.32l0.35,0.63c0.04,0.06,0.07,0.12,0.12,0.21l0.05,0.08
			c0.03,0.07,0.07,0.13,0.1,0.2l0.1,0.18c0.04,0.07,0.07,0.14,0.11,0.21l1.04,2.02c1.45,2.83,3.88,7.56,5.96,10.64
			c0.2,0.29,0.49,0.46,0.77,0.46c0.26,0,0.5-0.14,0.63-0.36c0.15-0.3,0.11-0.66-0.12-1.01c-0.62-0.95-1.31-2.14-2.04-3.55
			c-1.6-3.12-2.89-6.45-3.55-9.14l-0.03-0.1c-0.06-0.25-0.11-0.49-0.16-0.72l0.01-0.04l-0.03-0.04c-0.58-3.36-0.64-5.49-0.64-6.25
			c0-2.77,1.58-4.83,3.94-5.13c0.22-0.02,0.4-0.03,0.56-0.03c1.23,0,2.42,0.51,3.28,1.4c0.18,0.19,0.35,0.4,0.51,0.64
			c0.06,0.1,0.11,0.18,0.13,0.21l0.06,0.12c0.03,0.05,0.06,0.1,0.1,0.19l0.04,0.09c0.03,0.07,0.06,0.13,0.09,0.21
			c0.03,0.06,0.04,0.11,0.07,0.18l0.03,0.11c0.1,0.31,0.16,0.59,0.19,0.83c0.01,0.11,0.28,2.11,0.86,5.34
			c0.03,0.15,0.05,0.3,0.08,0.45c0.02,0.16,0.05,0.32,0.07,0.47c0.08,0.49,0.16,0.99,0.26,1.48l0.01,0.1
			c0.01,0.04,0.01,0.07,0.01,0.09l0.01,0.08c0.01,0.03,0.02,0.07,0.02,0.11c0.04,0.21,0.08,0.52,0.14,0.89l0.02,0.13
			c0.32,2.25,1.01,6.94,1.8,9.58c0.08,0.49,0.46,0.75,0.79,0.75c0.19,0,0.37-0.08,0.51-0.24c0.09-0.1,0.22-0.32,0.17-0.7
			c-0.03-0.2-0.07-0.41-0.11-0.65c-0.04-0.24-0.08-0.5-0.12-0.79c-0.38-2.18-1-5.84-0.85-8.67c0.02-0.41,0.09-0.81,0.21-1.18
			c0.01-0.03,0.03-0.06,0.03-0.1c0.01-0.02,0.02-0.05,0.03-0.08c0.02-0.03,0.03-0.06,0.04-0.1c0.03-0.08,0.06-0.15,0.09-0.2
			l0.19-0.36c0.09-0.16,0.2-0.33,0.36-0.54c0.06-0.09,0.12-0.16,0.18-0.24c0.3-0.33,0.6-0.6,0.92-0.82c0.2-0.13,0.43-0.26,0.7-0.37
			c0.68-0.27,1.45-0.37,2.07-0.28c2.68,0.29,3.97,1.88,3.92,4.85v0.1c-0.13,2.3-0.21,5.24-0.21,8.27c0,5.71,0.36,11.8,1.05,18.11
			C73.86,73.88,74.41,77.87,74.23,81.59z"/>
	</g>
</g>
<g>
	<g>
		<path class="st0" d="M74.74-94.33c-0.05-0.15-0.11-0.29-0.18-0.43c-0.06-0.14-0.14-0.27-0.23-0.39l-0.04-0.07
			c-0.1-0.14-0.2-0.26-0.32-0.38l-0.03-0.02c-0.05-0.05-0.1-0.1-0.15-0.15c-0.05-0.05-0.09-0.07-0.13-0.1l-0.08-0.06
			c-0.03-0.03-0.07-0.05-0.1-0.08c-0.13-0.08-0.27-0.16-0.4-0.22c-0.05-0.03-0.09-0.05-0.14-0.06l-0.08-0.04
			c-0.05-0.02-0.1-0.04-0.15-0.05c-0.07-0.02-0.14-0.05-0.21-0.06c-0.11-0.03-0.2-0.05-0.28-0.06c-0.07-0.01-0.12-0.02-0.19-0.03
			h-0.07c-0.1-0.01-0.19-0.01-0.24-0.01c-0.12,0-0.24,0-0.36,0.02c-0.12,0.01-0.24,0.03-0.36,0.06L37.12-88.3
			c-0.05,0.01-0.09,0.02-0.14,0.04c-0.12,0.03-0.24,0.08-0.35,0.13l-0.17,0.08c-0.07,0.03-0.11,0.06-0.16,0.09
			c-0.04,0.03-0.08,0.05-0.12,0.08c-0.59,0.39-1.04,0.97-1.26,1.64l-0.96,2.83c-0.05,0.18-0.1,0.35-0.12,0.51
			c-0.08,0.48-0.05,0.96,0.1,1.43c0.06,0.21,0.15,0.43,0.26,0.63c0.06,0.1,0.12,0.19,0.18,0.29l0.05,0.06
			c0.06,0.07,0.11,0.14,0.17,0.21c0.09,0.09,0.17,0.18,0.26,0.26h0.01l0.07,0.07c0.04,0.03,0.07,0.06,0.11,0.08
			c0.04,0.04,0.07,0.06,0.11,0.08c0.08,0.06,0.15,0.11,0.22,0.15l0.06,0.03c0.09,0.05,0.18,0.09,0.28,0.13
			c0.05,0.03,0.09,0.04,0.13,0.06c0.07,0.03,0.11,0.04,0.15,0.05c0.16,0.05,0.31,0.09,0.48,0.11c0.11,0.02,0.22,0.03,0.32,0.04
			c0.08,0.01,0.12,0,0.17,0h34.86c0.11,0,0.18-0.01,0.24-0.02c0.11-0.01,0.19-0.02,0.27-0.04c0.06-0.01,0.08-0.02,0.1-0.02
			c0.09-0.02,0.15-0.04,0.21-0.06c0.06-0.02,0.11-0.04,0.15-0.05c0.04-0.02,0.07-0.03,0.1-0.04c0.05-0.02,0.08-0.03,0.11-0.05
			c0.08-0.03,0.13-0.06,0.18-0.08c0.17-0.09,0.33-0.2,0.48-0.31c0.05-0.05,0.1-0.08,0.14-0.12c0.05-0.05,0.1-0.09,0.14-0.13
			c0.05-0.06,0.11-0.11,0.16-0.17v-0.15h0.12c0.06-0.09,0.13-0.18,0.18-0.27c0.04-0.05,0.07-0.1,0.09-0.15
			c0.05-0.09,0.07-0.14,0.09-0.19l0.1-0.24c0.07-0.16,0.11-0.34,0.14-0.52c0.02-0.09,0.03-0.18,0.04-0.28
			c0.01-0.1,0.02-0.19,0.02-0.28v-10.97C74.89-93.7,74.84-94.02,74.74-94.33z M48.15-84.1c0,0.09-0.02,0.18-0.03,0.27
			c-0.01,0.01-0.01,0.03-0.01,0.04c-0.02,0.1-0.04,0.2-0.08,0.3c-0.23,0.73-0.72,1.35-1.37,1.73c-0.07,0.05-0.15,0.08-0.22,0.12
			c-0.11,0.05-0.21,0.1-0.32,0.13c-0.09,0.04-0.19,0.07-0.29,0.09c-0.07,0.02-0.13,0.03-0.2,0.04c-0.17,0.03-0.35,0.05-0.53,0.05
			c-1.69,0-3.07-1.38-3.07-3.08v-0.19c0-0.03,0-0.06,0.01-0.09c0-0.02,0.01-0.03,0.01-0.05l0.02-0.16c0.03-0.17,0.07-0.33,0.12-0.49
			c0,0,0-0.01,0-0.02c0.01-0.02,0.02-0.05,0.03-0.08c0.01-0.01,0.01-0.03,0.02-0.04c0.01-0.03,0.02-0.05,0.03-0.08
			c0.01-0.02,0.02-0.05,0.03-0.07c0.02-0.03,0.03-0.06,0.04-0.08c0.06-0.12,0.12-0.23,0.19-0.33c0.04-0.05,0.08-0.12,0.12-0.17
			c0.05-0.07,0.1-0.14,0.16-0.2c0.08-0.1,0.17-0.18,0.26-0.26c0.09-0.08,0.19-0.16,0.29-0.23c0.05-0.04,0.11-0.07,0.16-0.1
			c0.01-0.01,0.02-0.01,0.03-0.02c0.02-0.01,0.03-0.02,0.04-0.02c0.04-0.02,0.07-0.04,0.11-0.06c0.04-0.02,0.08-0.03,0.11-0.05
			c0.07-0.04,0.14-0.07,0.22-0.09c0.08-0.03,0.16-0.06,0.25-0.08c0.02-0.01,0.03-0.02,0.05-0.01c0.1-0.04,0.2-0.06,0.3-0.07
			c0.01-0.01,0.02-0.01,0.03-0.01c0.05-0.01,0.09-0.01,0.14-0.01c0.03-0.01,0.07-0.01,0.1-0.01c0.06-0.01,0.13-0.01,0.2-0.01
			c0.09,0,0.17,0,0.26,0.01c0.02,0,0.05,0.01,0.07,0.01c0.03,0,0.06,0,0.1,0.01c0.06,0.01,0.13,0.02,0.19,0.03
			c0.01,0,0.01,0,0.02,0.01c0.1,0.02,0.2,0.05,0.3,0.08c0.05,0.01,0.1,0.03,0.14,0.05c0.03,0.01,0.06,0.02,0.09,0.03
			c0.02,0.01,0.04,0.02,0.06,0.03c0.14,0.06,0.27,0.13,0.39,0.21c0.07,0.04,0.14,0.08,0.2,0.14c0.06,0.04,0.12,0.09,0.18,0.14
			c0.08,0.07,0.15,0.14,0.22,0.21c0.17,0.17,0.32,0.36,0.43,0.57c0.03,0.04,0.05,0.08,0.07,0.12c0,0,0.01,0,0.01,0.01
			c0.03,0.07,0.06,0.13,0.09,0.19c0.02,0.06,0.05,0.12,0.07,0.19c0.05,0.14,0.09,0.29,0.12,0.44c0.01,0.01,0.01,0.01,0.01,0.02
			c0.01,0.04,0.02,0.09,0.02,0.13v0.05c0.01,0.02,0.01,0.05,0.01,0.07c0.01,0.02,0.01,0.04,0.01,0.05c0.01,0.09,0.01,0.19,0.01,0.28
			C48.17-84.3,48.16-84.2,48.15-84.1z"/>
	</g>
	<g>
		<path class="st1" d="M48.17-84.41c0,1.7-1.38,3.07-3.07,3.07c-1.7,0-3.07-1.38-3.07-3.07c0-1.05,0.53-1.98,1.33-2.54
			c0.5-0.34,1.1-0.54,1.74-0.54c0.87,0,1.66,0.36,2.22,0.96C47.86-85.98,48.17-85.23,48.17-84.41z"/>
	</g>
	<path class="st2" d="M47.68-130.25L47.68-130.25z"/>
	<path class="st2" d="M46.8-129.51L46.8-129.51z"/>
	<g>
		<path class="st3" d="M74.23-108.37c-0.08,2.77-0.82,5.45-2.21,7.95c-0.17,0.3-0.36,0.61-0.56,0.92l-0.19,0.3
			c-0.18,0.26-0.42,0.45-0.71,0.58c-0.09,0.03-0.17,0.06-0.27,0.09l-32.14,7.69l-0.06,0.02c-0.47,0.1-0.95,0.05-1.39-0.13
			l-0.03-0.04h-0.05c-1.85-0.8-3.58-1.81-5.16-3.01c-2.42-1.84-4.33-4-5.68-6.42c-1.48-2.64-2.22-5.46-2.22-8.38
			c0-0.84,0.22-1.66,0.64-2.37c0.84-1.43,2.39-2.32,4.05-2.32c1.68,0,3.13,0.73,3.79,1.91l0.26,0.5c0.1,0.17,0.19,0.41,0.25,0.65
			c0,0.05,0.01,0.09,0.02,0.11l0.01,0.08c0.05,0.26,0.11,0.46,0.16,0.6c0.06,0.19,0.13,0.38,0.22,0.59
			c0.41,0.96,1.08,1.82,1.93,2.51c0.27,0.21,0.57,0.42,0.9,0.62c1.28,0.76,2.8,1.16,4.39,1.16c0.58,0,1.21-0.06,1.87-0.19
			c2.41-0.49,4.49-1.85,5.72-3.73c0.56-0.87,0.86-1.65,1.01-2.62c0.07-0.52,0.11-1.14,0.11-1.81l-0.04-0.5
			c-0.05-0.54-0.13-1.1-0.25-1.63l-0.02-0.1c-0.03-0.15-0.07-0.28-0.11-0.46c-0.02-0.07-0.04-0.14-0.07-0.21v-0.08l-0.04-0.04
			c-0.79-1.95-2.34-3.56-4.35-4.54c-1.66-0.79-3.51-1.08-5.09-0.86c-0.46,0.06-0.85,0.15-1.22,0.26c-1.81,0.53-3.28,1.73-4.15,3.38
			c-0.25,0.48-0.57,0.9-0.95,1.27l-0.12,0.1c-0.04,0.03-0.09,0.07-0.12,0.1c-0.18,0.13-0.35,0.26-0.51,0.37
			c-0.36,0.22-0.75,0.39-1.17,0.5c-0.17,0.04-0.31,0.07-0.47,0.1c-0.2,0.03-0.4,0.05-0.65,0.05c-0.65,0-1.29-0.15-1.9-0.45
			c-1.05-0.5-1.84-1.39-2.22-2.5c-0.39-1.11-0.32-2.31,0.19-3.36c1.88-3.89,5.27-6.73,9.57-8c1.57-0.46,3.19-0.7,4.83-0.7
			c0.96,0,1.91,0.08,2.82,0.24c0,0,0.35,0.06,0.87,0.16c0.17,0.03,0.35,0.08,0.55,0.13l0.11,0.03c0.08,0.02,0.16,0.04,0.23,0.06
			c0.19,0.04,0.34,0.09,0.51,0.14c0.48,0.14,0.98,0.31,1.44,0.5c0.04,0.03,0.09,0.05,0.15,0.08l0.08,0.03
			c0.69,0.34,1.54,0.87,2.43,1.52c0.34,0.29,0.84,0.33,1.17,0c0.26-0.32,0.19-0.82-0.15-1.14c-0.01,0-0.04-0.03-0.11-0.09
			c-1.99-1.75-3.16-2.95-3.81-3.67l-0.2-0.23c-0.15-0.15-0.29-0.31-0.41-0.47l-0.11-0.14c-5.83-6.96-7.33-11.87-7.57-12.78
			c-0.54-2.16-0.7-5.01,1.61-6.31c1.1-0.61,2.23-0.79,3.28-0.5c0.18,0.05,0.33,0.1,0.47,0.16l0.09,0.04h0.01
			c0.21,0.08,0.42,0.2,0.66,0.37c0.09,0.05,0.16,0.1,0.23,0.15c0.15,0.12,0.3,0.25,0.48,0.43c0.14,0.13,0.28,0.29,0.45,0.5
			c0.18,0.21,0.32,0.4,0.43,0.58l0.22,0.37c0.83,1.67,1.78,3.46,2.81,5.32l0.35,0.63c0.04,0.06,0.07,0.12,0.12,0.21l0.05,0.08
			c0.03,0.07,0.07,0.13,0.1,0.2l0.1,0.18c0.04,0.07,0.07,0.14,0.11,0.21l1.04,2.02c1.45,2.83,3.88,7.56,5.96,10.64
			c0.2,0.29,0.49,0.46,0.77,0.46c0.26,0,0.5-0.14,0.63-0.36c0.15-0.3,0.11-0.66-0.12-1.01c-0.62-0.95-1.31-2.14-2.04-3.55
			c-1.6-3.12-2.89-6.45-3.55-9.14l-0.03-0.1c-0.06-0.25-0.11-0.49-0.16-0.72l0.01-0.04l-0.03-0.04c-0.58-3.36-0.64-5.49-0.64-6.25
			c0-2.77,1.58-4.83,3.94-5.13c0.22-0.02,0.4-0.03,0.56-0.03c1.23,0,2.42,0.51,3.28,1.4c0.18,0.19,0.35,0.4,0.51,0.64
			c0.06,0.1,0.11,0.18,0.13,0.21l0.06,0.12c0.03,0.05,0.06,0.1,0.1,0.19l0.04,0.09c0.03,0.07,0.06,0.13,0.09,0.21
			c0.03,0.06,0.04,0.11,0.07,0.18l0.03,0.11c0.1,0.31,0.16,0.59,0.19,0.83c0.01,0.11,0.28,2.11,0.86,5.34
			c0.03,0.15,0.05,0.3,0.08,0.45c0.02,0.16,0.05,0.32,0.07,0.47c0.08,0.49,0.16,0.99,0.26,1.48l0.01,0.1
			c0.01,0.04,0.01,0.07,0.01,0.09l0.01,0.08c0.01,0.03,0.02,0.07,0.02,0.11c0.04,0.21,0.08,0.52,0.14,0.89l0.02,0.13
			c0.32,2.25,1.01,6.94,1.8,9.58c0.08,0.49,0.46,0.75,0.79,0.75c0.19,0,0.37-0.08,0.51-0.24c0.09-0.1,0.22-0.32,0.17-0.7
			c-0.03-0.2-0.07-0.41-0.11-0.65c-0.04-0.24-0.08-0.5-0.12-0.79c-0.38-2.18-1-5.84-0.85-8.67c0.02-0.41,0.09-0.81,0.21-1.18
			c0.01-0.03,0.03-0.06,0.03-0.1c0.01-0.02,0.02-0.05,0.03-0.08c0.02-0.03,0.03-0.06,0.04-0.1c0.03-0.08,0.06-0.15,0.09-0.2
			l0.19-0.36c0.09-0.16,0.2-0.33,0.36-0.54c0.06-0.09,0.12-0.16,0.18-0.24c0.3-0.33,0.6-0.6,0.92-0.82c0.2-0.13,0.43-0.26,0.7-0.37
			c0.68-0.27,1.45-0.37,2.07-0.28c2.68,0.29,3.97,1.88,3.92,4.85v0.1c-0.13,2.3-0.21,5.24-0.21,8.27c0,5.71,0.36,11.8,1.05,18.11
			C73.86-116.08,74.41-112.09,74.23-108.37z"/>
	</g>
</g>
<rect x="-303.25" width="250" height="150"/>
<rect x="-303.25" y="-189.96" width="250" height="150"/>
<g>
	<path class="st3" d="M-270.91,97.67c-2.3-0.05-4.41-0.53-6.33-1.44c-2.04-0.97-3.79-2.31-5.24-4.04c-1.45-1.73-2.58-3.73-3.39-6
		c-0.81-2.27-1.22-4.71-1.23-7.32c-0.01-2.75,0.41-5.29,1.26-7.61c0.85-2.32,2.04-4.38,3.58-6.16c1.54-1.78,3.36-3.16,5.47-4.14
		c2.11-0.98,4.44-1.47,7-1.47c2.8-0.01,5.26,0.57,7.4,1.73c2.14,1.16,3.85,2.8,5.13,4.93l0-1.17c-0.01-2.73,2.2-4.95,4.93-4.95l0,0
		c2.73-0.01,4.95,2.2,4.95,4.93l0.07,29.55c0.01,3.76-0.9,7.01-2.72,9.74c-1.82,2.73-4.35,4.84-7.6,6.33
		c-3.24,1.49-7,2.24-11.27,2.25c-3.98,0.01-7.41-0.64-10.28-1.93c-1.33-0.6-2.58-1.32-3.76-2.15c-2.19-1.55-2.41-4.72-0.53-6.62v0
		c1.48-1.5,3.82-1.74,5.57-0.56c0.75,0.51,1.56,0.96,2.44,1.36c2.04,0.92,4.22,1.38,6.55,1.37c1.85,0,3.56-0.31,5.12-0.93
		c1.56-0.62,2.81-1.6,3.73-2.96c0.92-1.36,1.38-3.17,1.37-5.46l0-2.07c0-0.45-0.57-0.63-0.83-0.27c-1.58,2.13-3.86,3.62-6.83,4.47
		C-267.83,97.5-269.37,97.7-270.91,97.67z M-266.59,88.63c0.9,0,1.74-0.13,2.52-0.4c0.78-0.26,1.5-0.62,2.17-1.07
		c0.66-0.45,1.28-1,1.85-1.64c0.01-0.01,0.01-0.01,0.02-0.02c0.9-1.02,1.33-2.37,1.33-3.72l-0.01-4.06c0-2.03-0.67-4.04-2.05-5.53
		c-0.01-0.01-0.02-0.02-0.03-0.03c-0.9-0.97-1.9-1.71-2.99-2.23c-1.09-0.52-2.23-0.78-3.42-0.77c-1.19,0-2.3,0.27-3.34,0.79
		c-1.04,0.52-1.93,1.27-2.66,2.25c-0.73,0.97-1.3,2.05-1.7,3.24c-0.4,1.19-0.6,2.42-0.6,3.7c0,1.38,0.23,2.63,0.68,3.77
		c0.45,1.14,1.08,2.14,1.89,3.02c0.81,0.88,1.76,1.55,2.85,2.02C-268.98,88.4-267.82,88.63-266.59,88.63z"/>
	<path class="st3" d="M-220.14,97.67c-3.18-0.01-6-0.52-8.46-1.53c-2.46-1.01-4.56-2.39-6.28-4.13c-1.73-1.74-3.04-3.75-3.93-6.02
		c-0.9-2.28-1.34-4.66-1.33-7.14c0.01-3.54,0.81-6.76,2.41-9.67c1.6-2.9,3.89-5.25,6.88-7.03c2.99-1.78,6.6-2.67,10.82-2.66
		c4.22,0.01,7.81,0.91,10.77,2.69c2.96,1.78,5.22,4.11,6.77,6.98c1.56,2.88,2.33,5.99,2.32,9.35c0,0.65-0.04,1.3-0.11,1.93
		c0,0.01,0,0.01,0,0.02c-0.11,0.93-0.89,1.62-1.82,1.62L-228.06,82c0.14,1.61,0.6,2.98,1.38,4.08c0.78,1.11,1.78,1.95,3.02,2.53
		c1.23,0.58,2.53,0.87,3.91,0.87c1.71,0,3.31-0.39,4.8-1.2c0.43-0.23,0.83-0.49,1.18-0.77c1.72-1.35,3.92-1.93,6.02-1.34l0.05,0.01
		c2.99,0.84,3.84,4.67,1.49,6.7v0c-1.74,1.49-3.78,2.66-6.13,3.5C-214.69,97.26-217.29,97.68-220.14,97.67z M-228.33,75.03
		l16.21,0.04c-0.19-1.49-0.63-2.79-1.34-3.9c-0.71-1.11-1.66-1.97-2.84-2.59c-1.18-0.61-2.49-0.92-3.91-0.93
		c-1.47,0-2.79,0.3-3.95,0.91c-1.16,0.61-2.1,1.46-2.82,2.57C-227.68,72.24-228.13,73.54-228.33,75.03z"/>
	<path class="st3" d="M-178.23,97.73c-3.18-0.02-6.28-0.57-9.3-1.63c-1.64-0.58-3.14-1.3-4.5-2.17c-1.89-1.21-2.49-3.7-1.4-5.66v0
		c1.14-2.06,3.75-2.83,5.79-1.67c1.03,0.58,2.04,1.08,3.05,1.48c2.15,0.87,4.17,1.31,6.07,1.33c1.47,0.01,2.61-0.2,3.42-0.65
		c0.81-0.44,1.22-1.13,1.22-2.07c0.01-0.7-0.23-1.25-0.7-1.65c-0.47-0.4-1.19-0.77-2.16-1.1c-0.97-0.33-2.16-0.69-3.58-1.08
		c-2.84-0.95-5.2-1.88-7.09-2.79c-1.89-0.9-3.3-2-4.24-3.29c-0.94-1.29-1.4-2.97-1.39-5.02c0.02-2.48,0.66-4.63,1.93-6.47
		c1.27-1.84,3.07-3.26,5.4-4.27c2.33-1.01,5.11-1.5,8.33-1.48c2.56,0.02,5.06,0.44,7.49,1.26c1.11,0.38,2.19,0.87,3.24,1.47
		c2.11,1.22,2.74,3.99,1.44,6.05l0,0c-1.22,1.94-3.76,2.59-5.77,1.49c-0.78-0.43-1.51-0.78-2.21-1.06
		c-1.65-0.68-3.26-1.02-4.83-1.03c-0.81-0.01-1.54,0.08-2.21,0.26c-0.67,0.18-1.2,0.49-1.61,0.93c-0.41,0.44-0.61,1.01-0.62,1.71
		c-0.01,0.7,0.19,1.26,0.59,1.68c0.4,0.42,1.04,0.79,1.91,1.1c0.87,0.31,1.97,0.68,3.3,1.11c3.07,0.91,5.63,1.82,7.66,2.74
		c2.03,0.92,3.55,2.05,4.56,3.38c1.01,1.33,1.51,3.09,1.49,5.28c-0.03,3.72-1.41,6.63-4.15,8.73
		C-169.82,96.74-173.54,97.77-178.23,97.73z"/>
	<path class="st3" d="M-131.27,91.7c0,0.33-0.03,0.65-0.09,0.97c-0.33,1.53-1.42,2.79-2.85,3.39c-0.2,0.07-0.39,0.14-0.59,0.2
		c-1.1,0.35-2.25,0.63-3.44,0.87c-1.37,0.26-2.72,0.39-4.05,0.39c-1.9,0-3.64-0.32-5.23-0.95c-1.59-0.63-2.85-1.67-3.77-3.12
		c-0.93-1.44-1.38-3.36-1.38-5.74l-0.01-19.21l-0.46,0c-2.38,0-4.31-1.92-4.31-4.3c0-1.2,0.48-2.27,1.26-3.04
		c0.78-0.77,1.86-1.26,3.05-1.26l0.46,0l0-6.19c0-3.14,2.54-5.69,5.69-5.69c1.57,0,2.99,0.64,4.02,1.67
		c1.03,1.03,1.67,2.45,1.67,4.02l0,6.19l3.3,0c2.38,0,4.31,1.92,4.31,4.3c0,1.2-0.48,2.27-1.26,3.04c-0.78,0.77-1.86,1.26-3.05,1.26
		l-3.3,0l0.01,15.23c0,1.21,0.3,2.07,0.92,2.61c0.62,0.53,1.4,0.79,2.35,0.79c0.37,0,0.75-0.03,1.14-0.09
		c0.09-0.01,0.19-0.03,0.29-0.04c0.16-0.01,0.33-0.02,0.49-0.02c1.54,0,2.91,0.7,3.78,1.79C-131.65,89.57-131.27,90.59-131.27,91.7z
		"/>
	<g>
		<g>
			<path class="st0" d="M-74.88,95.63c-0.05-0.15-0.11-0.29-0.18-0.43c-0.06-0.14-0.14-0.27-0.23-0.39l-0.04-0.07
				c-0.1-0.14-0.2-0.26-0.32-0.38l-0.03-0.02c-0.05-0.05-0.1-0.1-0.15-0.15c-0.05-0.05-0.09-0.07-0.13-0.1l-0.08-0.06
				c-0.03-0.03-0.07-0.05-0.1-0.08c-0.13-0.08-0.27-0.16-0.4-0.22c-0.05-0.03-0.09-0.05-0.14-0.06l-0.08-0.04
				c-0.05-0.02-0.1-0.04-0.15-0.05c-0.07-0.02-0.14-0.05-0.21-0.06c-0.11-0.03-0.2-0.05-0.28-0.06c-0.07-0.01-0.12-0.02-0.19-0.03
				h-0.07c-0.1-0.01-0.19-0.01-0.24-0.01c-0.12,0-0.24,0-0.36,0.02c-0.12,0.01-0.24,0.03-0.36,0.06l-33.88,8.16
				c-0.05,0.01-0.09,0.02-0.14,0.04c-0.12,0.03-0.24,0.08-0.35,0.13l-0.17,0.08c-0.07,0.03-0.11,0.06-0.16,0.09
				c-0.04,0.03-0.08,0.05-0.12,0.08c-0.59,0.39-1.04,0.97-1.26,1.64l-0.96,2.83c-0.05,0.18-0.1,0.35-0.12,0.51
				c-0.08,0.48-0.05,0.96,0.1,1.43c0.06,0.21,0.15,0.43,0.26,0.63c0.06,0.1,0.12,0.19,0.18,0.29l0.05,0.06
				c0.06,0.07,0.11,0.14,0.17,0.21c0.09,0.09,0.17,0.18,0.26,0.26h0.01l0.07,0.07c0.04,0.03,0.07,0.06,0.11,0.08
				c0.04,0.04,0.07,0.06,0.11,0.08c0.08,0.06,0.15,0.11,0.22,0.15l0.06,0.03c0.09,0.05,0.18,0.09,0.28,0.13
				c0.05,0.03,0.09,0.04,0.13,0.06c0.07,0.03,0.11,0.04,0.15,0.05c0.16,0.05,0.31,0.09,0.48,0.11c0.11,0.02,0.22,0.03,0.32,0.04
				c0.08,0.01,0.12,0,0.17,0h34.86c0.11,0,0.18-0.01,0.24-0.02c0.11-0.01,0.19-0.02,0.27-0.04c0.06-0.01,0.08-0.02,0.1-0.02
				c0.09-0.02,0.15-0.04,0.21-0.06c0.06-0.02,0.11-0.04,0.15-0.05c0.04-0.02,0.07-0.03,0.1-0.04c0.05-0.02,0.08-0.03,0.11-0.05
				c0.08-0.03,0.13-0.06,0.18-0.08c0.17-0.09,0.33-0.2,0.48-0.31c0.05-0.05,0.1-0.08,0.14-0.12c0.05-0.05,0.1-0.09,0.14-0.13
				c0.05-0.06,0.11-0.11,0.16-0.17v-0.15h0.12c0.06-0.09,0.13-0.18,0.18-0.27c0.04-0.05,0.07-0.1,0.09-0.15
				c0.05-0.09,0.07-0.14,0.09-0.19l0.1-0.24c0.07-0.16,0.11-0.34,0.14-0.52c0.02-0.09,0.03-0.18,0.04-0.28
				c0.01-0.1,0.02-0.19,0.02-0.28V96.6C-74.73,96.26-74.78,95.94-74.88,95.63z M-101.47,105.86c0,0.09-0.02,0.18-0.03,0.27
				c-0.01,0.01-0.01,0.03-0.01,0.04c-0.02,0.1-0.04,0.2-0.08,0.3c-0.23,0.73-0.72,1.35-1.37,1.73c-0.07,0.05-0.15,0.08-0.22,0.12
				c-0.11,0.05-0.21,0.1-0.32,0.13c-0.09,0.04-0.19,0.07-0.29,0.09c-0.07,0.02-0.13,0.03-0.2,0.04c-0.17,0.03-0.35,0.05-0.53,0.05
				c-1.69,0-3.07-1.38-3.07-3.08v-0.19c0-0.03,0-0.06,0.01-0.09c0-0.02,0.01-0.03,0.01-0.05l0.02-0.16
				c0.03-0.17,0.07-0.33,0.12-0.49c0,0,0-0.01,0-0.02c0.01-0.02,0.02-0.05,0.03-0.08c0.01-0.01,0.01-0.03,0.02-0.04
				c0.01-0.03,0.02-0.05,0.03-0.08c0.01-0.02,0.02-0.05,0.03-0.07c0.02-0.03,0.03-0.06,0.04-0.08c0.06-0.12,0.12-0.23,0.19-0.33
				c0.04-0.05,0.08-0.12,0.12-0.17c0.05-0.07,0.1-0.14,0.16-0.2c0.08-0.1,0.17-0.18,0.26-0.26c0.09-0.08,0.19-0.16,0.29-0.23
				c0.05-0.04,0.11-0.07,0.16-0.1c0.01-0.01,0.02-0.01,0.03-0.02c0.02-0.01,0.03-0.02,0.04-0.02c0.04-0.02,0.07-0.04,0.11-0.06
				c0.04-0.02,0.08-0.03,0.11-0.05c0.07-0.04,0.14-0.07,0.22-0.09c0.08-0.03,0.16-0.06,0.25-0.08c0.02-0.01,0.03-0.02,0.05-0.01
				c0.1-0.04,0.2-0.06,0.3-0.07c0.01-0.01,0.02-0.01,0.03-0.01c0.05-0.01,0.09-0.01,0.14-0.01c0.03-0.01,0.07-0.01,0.1-0.01
				c0.06-0.01,0.13-0.01,0.2-0.01c0.09,0,0.17,0,0.26,0.01c0.02,0,0.05,0.01,0.07,0.01c0.03,0,0.06,0,0.1,0.01
				c0.06,0.01,0.13,0.02,0.19,0.03c0.01,0,0.01,0,0.02,0.01c0.1,0.02,0.2,0.05,0.3,0.08c0.05,0.01,0.1,0.03,0.14,0.05
				c0.03,0.01,0.06,0.02,0.09,0.03c0.02,0.01,0.04,0.02,0.06,0.03c0.14,0.06,0.27,0.13,0.39,0.21c0.07,0.04,0.14,0.08,0.2,0.14
				c0.06,0.04,0.12,0.09,0.18,0.14c0.08,0.07,0.15,0.14,0.22,0.21c0.17,0.17,0.32,0.36,0.43,0.57c0.03,0.04,0.05,0.08,0.07,0.12
				c0,0,0.01,0,0.01,0.01c0.03,0.07,0.06,0.13,0.09,0.19c0.02,0.06,0.05,0.12,0.07,0.19c0.05,0.14,0.09,0.29,0.12,0.44
				c0.01,0.01,0.01,0.01,0.01,0.02c0.01,0.04,0.02,0.09,0.02,0.13v0.05c0.01,0.02,0.01,0.05,0.01,0.07
				c0.01,0.02,0.01,0.04,0.01,0.05c0.01,0.09,0.01,0.19,0.01,0.28C-101.45,105.66-101.46,105.76-101.47,105.86z"/>
		</g>
		<g>
			<path class="st1" d="M-101.44,105.55c0,1.7-1.38,3.07-3.07,3.07c-1.7,0-3.07-1.38-3.07-3.07c0-1.05,0.53-1.98,1.33-2.54
				c0.5-0.34,1.1-0.54,1.74-0.54c0.87,0,1.66,0.36,2.22,0.96C-101.76,103.98-101.44,104.72-101.44,105.55z"/>
		</g>
		<path class="st2" d="M-101.94,59.7L-101.94,59.7z"/>
		<path class="st2" d="M-102.82,60.44L-102.82,60.44z"/>
		<g>
			<path d="M-76,91.56c0.17-0.27,0.33-0.55,0.51-0.86c1.58-2.83,2.43-5.88,2.5-9.03c0.19-3.8-0.31-7.72-0.54-9.22
				c-0.69-6.17-1.03-12.17-1.03-17.81c0-2.88,0.07-5.77,0.2-8.13c0.01-0.13,0.01-0.21,0.01-0.22c0.07-4.19-2.15-6.84-6.08-7.27
				c-0.28-0.02-0.53-0.04-0.75-0.04c-1.88,0-3.65,0.82-4.93,2.25c-0.46-2.68-0.67-4.15-0.67-4.23c-0.44-3.49-3.41-6.12-6.9-6.12
				c-0.27,0-0.55,0.01-0.85,0.04c-3.63,0.46-6.07,3.48-6.06,7.51c0,0.39,0.02,1.13,0.1,2.17c-0.31-0.6-0.65-1.26-1.04-2.01
				l-0.28-0.51l-0.05-0.07c-1.46-2.22-3.54-3.44-5.84-3.44c-1.18,0-2.37,0.32-3.44,0.93c-1.66,0.92-4.22,3.31-2.79,9.01
				c0.25,0.94,1.72,5.9,7.35,12.86c-2.83-0.43-5.82-0.24-8.52,0.57c-4.94,1.46-8.87,4.74-11.06,9.25c-1.28,2.65-0.74,5.74,1.31,7.79
				c-1.09,0.61-2.01,1.49-2.65,2.57c-0.64,1.11-0.98,2.35-0.98,3.61c0,3.33,0.86,6.54,2.54,9.55c1.5,2.72,3.64,5.13,6.33,7.17
				c1.39,1.04,2.88,1.96,4.43,2.74c-0.74,0.62-1.31,1.44-1.63,2.39l-0.95,2.84c-0.56,1.66-0.29,3.44,0.73,4.87
				c1.03,1.42,2.62,2.24,4.38,2.24h34.74c2.97,0,5.39-2.42,5.39-5.39V96.6C-72.52,94.37-73.94,92.34-76,91.56z M-118.16,95.96
				c-2.42-1.84-4.33-4-5.68-6.42c-1.48-2.64-2.22-5.46-2.22-8.38c0-0.84,0.22-1.66,0.64-2.37c0.84-1.43,2.39-2.32,4.05-2.32
				c1.68,0,3.13,0.73,3.79,1.91l0.26,0.5c0.1,0.17,0.19,0.41,0.25,0.65c0,0.05,0.01,0.09,0.02,0.11l0.01,0.08
				c0.05,0.26,0.11,0.46,0.16,0.6c0.06,0.19,0.13,0.38,0.22,0.59c0.41,0.96,1.08,1.82,1.93,2.51c0.27,0.21,0.57,0.42,0.9,0.62
				c1.28,0.76,2.8,1.16,4.39,1.16c0.58,0,1.21-0.06,1.87-0.19c2.41-0.49,4.49-1.85,5.72-3.73c0.56-0.87,0.86-1.65,1.01-2.62
				c0.07-0.52,0.11-1.14,0.11-1.81l-0.04-0.5c-0.05-0.54-0.13-1.1-0.25-1.63l-0.02-0.1c-0.03-0.15-0.07-0.28-0.11-0.46
				c-0.02-0.07-0.04-0.14-0.07-0.21v-0.08l-0.04-0.04c-0.79-1.95-2.34-3.56-4.35-4.54c-1.66-0.79-3.51-1.08-5.09-0.86
				c-0.46,0.06-0.85,0.15-1.22,0.26c-1.81,0.53-3.28,1.73-4.15,3.38c-0.25,0.48-0.57,0.9-0.95,1.27l-0.12,0.1
				c-0.04,0.03-0.09,0.07-0.12,0.1c-0.18,0.13-0.35,0.26-0.51,0.37c-0.36,0.22-0.75,0.39-1.17,0.5c-0.17,0.04-0.31,0.07-0.47,0.1
				c-0.2,0.03-0.4,0.05-0.65,0.05c-0.65,0-1.29-0.15-1.9-0.45c-1.05-0.5-1.84-1.39-2.22-2.5c-0.39-1.11-0.32-2.31,0.19-3.36
				c1.88-3.89,5.27-6.73,9.57-8c1.57-0.46,3.19-0.7,4.83-0.7c0.96,0,1.91,0.08,2.82,0.24c0,0,0.35,0.06,0.87,0.16
				c0.17,0.03,0.35,0.08,0.55,0.13l0.11,0.03c0.08,0.02,0.16,0.04,0.23,0.06c0.19,0.04,0.34,0.09,0.51,0.14
				c0.48,0.14,0.98,0.31,1.44,0.5c0.04,0.03,0.09,0.05,0.15,0.08l0.08,0.03c0.69,0.34,1.54,0.87,2.43,1.52
				c0.34,0.29,0.84,0.33,1.17,0c0.26-0.32,0.19-0.82-0.15-1.14c-0.01,0-0.04-0.03-0.11-0.09c-1.99-1.75-3.16-2.95-3.81-3.67
				l-0.2-0.23c-0.15-0.15-0.29-0.31-0.41-0.47l-0.11-0.14c-5.83-6.96-7.33-11.87-7.57-12.78c-0.54-2.16-0.7-5.01,1.61-6.31
				c1.1-0.61,2.23-0.79,3.28-0.5c0.18,0.05,0.33,0.1,0.47,0.16l0.09,0.04h0.01c0.21,0.08,0.42,0.2,0.66,0.37
				c0.09,0.05,0.16,0.1,0.23,0.15c0.15,0.12,0.3,0.25,0.48,0.43c0.14,0.13,0.28,0.29,0.45,0.5c0.18,0.21,0.32,0.4,0.43,0.58
				l0.22,0.37c0.83,1.67,1.78,3.46,2.81,5.32l0.35,0.63c0.04,0.06,0.07,0.12,0.12,0.21l0.05,0.08c0.03,0.07,0.07,0.13,0.1,0.2
				l0.1,0.18c0.04,0.07,0.07,0.14,0.11,0.21l1.04,2.02c1.45,2.83,3.88,7.56,5.96,10.64c0.2,0.29,0.49,0.46,0.77,0.46
				c0.26,0,0.5-0.14,0.63-0.36c0.15-0.3,0.11-0.66-0.12-1.01c-0.62-0.95-1.31-2.14-2.04-3.55c-1.6-3.12-2.89-6.45-3.55-9.14
				l-0.03-0.1c-0.06-0.25-0.11-0.49-0.16-0.72l0.01-0.04l-0.03-0.04c-0.58-3.36-0.64-5.49-0.64-6.25c0-2.77,1.58-4.83,3.94-5.13
				c0.22-0.02,0.4-0.03,0.56-0.03c1.23,0,2.42,0.51,3.28,1.4c0.18,0.19,0.35,0.4,0.51,0.64c0.06,0.1,0.11,0.18,0.13,0.21l0.06,0.12
				c0.03,0.05,0.06,0.1,0.1,0.19l0.04,0.09c0.03,0.07,0.06,0.13,0.09,0.21c0.03,0.06,0.04,0.11,0.07,0.18l0.03,0.11
				c0.1,0.31,0.16,0.59,0.19,0.83c0.01,0.11,0.28,2.11,0.86,5.34c0.03,0.15,0.05,0.3,0.08,0.45c0.02,0.16,0.05,0.32,0.07,0.47
				c0.08,0.49,0.16,0.99,0.26,1.48l0.01,0.1c0.01,0.04,0.01,0.07,0.01,0.09l0.01,0.08c0.01,0.03,0.02,0.07,0.02,0.11
				c0.04,0.21,0.08,0.52,0.14,0.89l0.02,0.13c0.32,2.25,1.01,6.94,1.8,9.58c0.08,0.49,0.46,0.75,0.79,0.75
				c0.19,0,0.37-0.08,0.51-0.24c0.09-0.1,0.22-0.32,0.17-0.7c-0.03-0.2-0.07-0.41-0.11-0.65c-0.04-0.24-0.08-0.5-0.12-0.79
				c-0.38-2.18-1-5.84-0.85-8.67c0.02-0.41,0.09-0.81,0.21-1.18c0.01-0.03,0.03-0.06,0.03-0.1c0.01-0.02,0.02-0.05,0.03-0.08
				c0.02-0.03,0.03-0.06,0.04-0.1c0.03-0.08,0.06-0.15,0.09-0.2l0.19-0.36c0.09-0.16,0.2-0.33,0.36-0.54
				c0.06-0.09,0.12-0.16,0.18-0.24c0.3-0.33,0.6-0.6,0.92-0.82c0.2-0.13,0.43-0.26,0.7-0.37c0.68-0.27,1.45-0.37,2.07-0.28
				c2.68,0.29,3.97,1.88,3.92,4.85v0.1c-0.13,2.3-0.21,5.24-0.21,8.27c0,5.71,0.36,11.8,1.05,18.11c0.17,1.13,0.72,5.12,0.54,8.84
				c-0.08,2.77-0.82,5.45-2.21,7.95c-0.17,0.3-0.36,0.61-0.56,0.92l-0.19,0.3c-0.18,0.26-0.42,0.45-0.71,0.58
				c-0.09,0.03-0.17,0.06-0.27,0.09l-32.14,7.69l-0.06,0.02c-0.47,0.1-0.95,0.05-1.39-0.13l-0.03-0.04H-113
				C-114.85,98.17-116.58,97.16-118.16,95.96z M-116.46,75.93c1.07-0.66,1.93-1.6,2.52-2.73c0.57-1.09,1.51-1.85,2.7-2.2
				c1.42-0.42,3.08-0.26,4.58,0.46c1.45,0.7,2.58,1.85,3.16,3.25c0.01,0.01,0.02,0.04,0.02,0.06c0.01,0.03,0.02,0.07,0.03,0.1
				c0.16,0.62,0.27,1.26,0.31,1.91l0.01,0.17c0,0.52-0.04,0.98-0.1,1.34c-0.09,0.61-0.28,1.1-0.64,1.68
				c-0.87,1.34-2.39,2.31-4.17,2.68c-0.46,0.09-0.93,0.13-1.4,0.13c-2.27,0-4.28-1.13-5.01-2.82c-0.1-0.25-0.18-0.5-0.23-0.76
				c-0.12-0.57-0.29-1.06-0.52-1.48l-0.27-0.51C-115.75,76.73-116.08,76.3-116.46,75.93z M-74.73,107.57c0,0.09-0.01,0.18-0.02,0.28
				c-0.01,0.1-0.02,0.19-0.04,0.28c-0.03,0.18-0.07,0.36-0.14,0.52l-0.1,0.24c-0.02,0.05-0.04,0.1-0.09,0.19
				c-0.02,0.05-0.05,0.1-0.09,0.15c-0.05,0.09-0.12,0.18-0.18,0.27h-0.12v0.15c-0.05,0.06-0.11,0.11-0.16,0.17
				c-0.04,0.04-0.09,0.08-0.14,0.13c-0.04,0.04-0.09,0.07-0.14,0.12c-0.15,0.11-0.31,0.22-0.48,0.31c-0.05,0.02-0.1,0.05-0.18,0.08
				c-0.03,0.02-0.06,0.03-0.11,0.05c-0.03,0.01-0.06,0.02-0.1,0.04c-0.04,0.01-0.09,0.03-0.15,0.05c-0.06,0.02-0.12,0.04-0.21,0.06
				c-0.02,0-0.04,0.01-0.1,0.02c-0.08,0.02-0.16,0.03-0.27,0.04c-0.06,0.01-0.13,0.02-0.24,0.02h-34.86c-0.05,0-0.09,0.01-0.17,0
				c-0.1-0.01-0.21-0.02-0.32-0.04c-0.17-0.02-0.32-0.06-0.48-0.11c-0.04-0.01-0.08-0.02-0.15-0.05c-0.04-0.02-0.08-0.03-0.13-0.06
				c-0.1-0.04-0.19-0.08-0.28-0.13l-0.06-0.03c-0.07-0.04-0.14-0.09-0.22-0.15c-0.04-0.02-0.07-0.04-0.11-0.08
				c-0.04-0.02-0.07-0.05-0.11-0.08l-0.07-0.07h-0.01c-0.09-0.08-0.17-0.17-0.26-0.26c-0.06-0.07-0.11-0.14-0.17-0.21l-0.05-0.06
				c-0.06-0.1-0.12-0.19-0.18-0.29c-0.11-0.2-0.2-0.42-0.26-0.63c-0.15-0.47-0.18-0.95-0.1-1.43c0.02-0.16,0.07-0.33,0.12-0.51
				l0.96-2.83c0.22-0.67,0.67-1.25,1.26-1.64c0.04-0.03,0.08-0.05,0.12-0.08c0.05-0.03,0.09-0.06,0.16-0.09l0.17-0.08
				c0.11-0.05,0.23-0.1,0.35-0.13c0.05-0.02,0.09-0.03,0.14-0.04l33.88-8.16c0.12-0.03,0.24-0.05,0.36-0.06
				c0.12-0.02,0.24-0.02,0.36-0.02c0.05,0,0.14,0,0.24,0.01h0.07c0.07,0.01,0.12,0.02,0.19,0.03c0.08,0.01,0.17,0.03,0.28,0.06
				c0.07,0.01,0.14,0.04,0.21,0.06c0.05,0.01,0.1,0.03,0.15,0.05l0.08,0.04c0.05,0.01,0.09,0.03,0.14,0.06
				c0.13,0.06,0.27,0.14,0.4,0.22c0.03,0.03,0.07,0.05,0.1,0.08l0.08,0.06c0.04,0.03,0.08,0.05,0.13,0.1
				c0.05,0.05,0.1,0.1,0.15,0.15l0.03,0.02c0.12,0.12,0.22,0.24,0.32,0.38l0.04,0.07c0.09,0.12,0.17,0.25,0.23,0.39
				c0.07,0.14,0.13,0.28,0.18,0.43c0.1,0.31,0.15,0.63,0.15,0.97V107.57z"/>
			<path class="st3" d="M-75.39,81.59c-0.08,2.77-0.82,5.45-2.21,7.95c-0.17,0.3-0.36,0.61-0.56,0.92l-0.19,0.3
				c-0.18,0.26-0.42,0.45-0.71,0.58c-0.09,0.03-0.17,0.06-0.27,0.09l-32.14,7.69l-0.06,0.02c-0.47,0.1-0.95,0.05-1.39-0.13
				l-0.03-0.04H-113c-1.85-0.8-3.58-1.81-5.16-3.01c-2.42-1.84-4.33-4-5.68-6.42c-1.48-2.64-2.22-5.46-2.22-8.38
				c0-0.84,0.22-1.66,0.64-2.37c0.84-1.43,2.39-2.32,4.05-2.32c1.68,0,3.13,0.73,3.79,1.91l0.26,0.5c0.1,0.17,0.19,0.41,0.25,0.65
				c0,0.05,0.01,0.09,0.02,0.11l0.01,0.08c0.05,0.26,0.11,0.46,0.16,0.6c0.06,0.19,0.13,0.38,0.22,0.59
				c0.41,0.96,1.08,1.82,1.93,2.51c0.27,0.21,0.57,0.42,0.9,0.62c1.28,0.76,2.8,1.16,4.39,1.16c0.58,0,1.21-0.06,1.87-0.19
				c2.41-0.49,4.49-1.85,5.72-3.73c0.56-0.87,0.86-1.65,1.01-2.62c0.07-0.52,0.11-1.14,0.11-1.81l-0.04-0.5
				c-0.05-0.54-0.13-1.1-0.25-1.63l-0.02-0.1c-0.03-0.15-0.07-0.28-0.11-0.46c-0.02-0.07-0.04-0.14-0.07-0.21v-0.08l-0.04-0.04
				c-0.79-1.95-2.34-3.56-4.35-4.54c-1.66-0.79-3.51-1.08-5.09-0.86c-0.46,0.06-0.85,0.15-1.22,0.26c-1.81,0.53-3.28,1.73-4.15,3.38
				c-0.25,0.48-0.57,0.9-0.95,1.27l-0.12,0.1c-0.04,0.03-0.09,0.07-0.12,0.1c-0.18,0.13-0.35,0.26-0.51,0.37
				c-0.36,0.22-0.75,0.39-1.17,0.5c-0.17,0.04-0.31,0.07-0.47,0.1c-0.2,0.03-0.4,0.05-0.65,0.05c-0.65,0-1.29-0.15-1.9-0.45
				c-1.05-0.5-1.84-1.39-2.22-2.5c-0.39-1.11-0.32-2.31,0.19-3.36c1.88-3.89,5.27-6.73,9.57-8c1.57-0.46,3.19-0.7,4.83-0.7
				c0.96,0,1.91,0.08,2.82,0.24c0,0,0.35,0.06,0.87,0.16c0.17,0.03,0.35,0.08,0.55,0.13l0.11,0.03c0.08,0.02,0.16,0.04,0.23,0.06
				c0.19,0.04,0.34,0.09,0.51,0.14c0.48,0.14,0.98,0.31,1.44,0.5c0.04,0.03,0.09,0.05,0.15,0.08l0.08,0.03
				c0.69,0.34,1.54,0.87,2.43,1.52c0.34,0.29,0.84,0.33,1.17,0c0.26-0.32,0.19-0.82-0.15-1.14c-0.01,0-0.04-0.03-0.11-0.09
				c-1.99-1.75-3.16-2.95-3.81-3.67l-0.2-0.23c-0.15-0.15-0.29-0.31-0.41-0.47l-0.11-0.14c-5.83-6.96-7.33-11.87-7.57-12.78
				c-0.54-2.16-0.7-5.01,1.61-6.31c1.1-0.61,2.23-0.79,3.28-0.5c0.18,0.05,0.33,0.1,0.47,0.16l0.09,0.04h0.01
				c0.21,0.08,0.42,0.2,0.66,0.37c0.09,0.05,0.16,0.1,0.23,0.15c0.15,0.12,0.3,0.25,0.48,0.43c0.14,0.13,0.28,0.29,0.45,0.5
				c0.18,0.21,0.32,0.4,0.43,0.58l0.22,0.37c0.83,1.67,1.78,3.46,2.81,5.32l0.35,0.63c0.04,0.06,0.07,0.12,0.12,0.21l0.05,0.08
				c0.03,0.07,0.07,0.13,0.1,0.2l0.1,0.18c0.04,0.07,0.07,0.14,0.11,0.21l1.04,2.02c1.45,2.83,3.88,7.56,5.96,10.64
				c0.2,0.29,0.49,0.46,0.77,0.46c0.26,0,0.5-0.14,0.63-0.36c0.15-0.3,0.11-0.66-0.12-1.01c-0.62-0.95-1.31-2.14-2.04-3.55
				c-1.6-3.12-2.89-6.45-3.55-9.14l-0.03-0.1c-0.06-0.25-0.11-0.49-0.16-0.72l0.01-0.04l-0.03-0.04c-0.58-3.36-0.64-5.49-0.64-6.25
				c0-2.77,1.58-4.83,3.94-5.13c0.22-0.02,0.4-0.03,0.56-0.03c1.23,0,2.42,0.51,3.28,1.4c0.18,0.19,0.35,0.4,0.51,0.64
				c0.06,0.1,0.11,0.18,0.13,0.21l0.06,0.12c0.03,0.05,0.06,0.1,0.1,0.19l0.04,0.09c0.03,0.07,0.06,0.13,0.09,0.21
				c0.03,0.06,0.04,0.11,0.07,0.18l0.03,0.11c0.1,0.31,0.16,0.59,0.19,0.83c0.01,0.11,0.28,2.11,0.86,5.34
				c0.03,0.15,0.05,0.3,0.08,0.45c0.02,0.16,0.05,0.32,0.07,0.47c0.08,0.49,0.16,0.99,0.26,1.48l0.01,0.1
				c0.01,0.04,0.01,0.07,0.01,0.09l0.01,0.08c0.01,0.03,0.02,0.07,0.02,0.11c0.04,0.21,0.08,0.52,0.14,0.89l0.02,0.13
				c0.32,2.25,1.01,6.94,1.8,9.58c0.08,0.49,0.46,0.75,0.79,0.75c0.19,0,0.37-0.08,0.51-0.24c0.09-0.1,0.22-0.32,0.17-0.7
				c-0.03-0.2-0.07-0.41-0.11-0.65c-0.04-0.24-0.08-0.5-0.12-0.79c-0.38-2.18-1-5.84-0.85-8.67c0.02-0.41,0.09-0.81,0.21-1.18
				c0.01-0.03,0.03-0.06,0.03-0.1c0.01-0.02,0.02-0.05,0.03-0.08c0.02-0.03,0.03-0.06,0.04-0.1c0.03-0.08,0.06-0.15,0.09-0.2
				l0.19-0.36c0.09-0.16,0.2-0.33,0.36-0.54c0.06-0.09,0.12-0.16,0.18-0.24c0.3-0.33,0.6-0.6,0.92-0.82c0.2-0.13,0.43-0.26,0.7-0.37
				c0.68-0.27,1.45-0.37,2.07-0.28c2.68,0.29,3.97,1.88,3.92,4.85v0.1c-0.13,2.3-0.21,5.24-0.21,8.27c0,5.71,0.36,11.8,1.05,18.11
				C-75.76,73.88-75.21,77.87-75.39,81.59z"/>
		</g>
	</g>
</g>
<g>
	<path class="st3" d="M-270.91-92.29c-2.3-0.05-4.41-0.53-6.33-1.44c-2.04-0.97-3.79-2.31-5.24-4.04c-1.45-1.73-2.58-3.73-3.39-6
		c-0.81-2.27-1.22-4.71-1.23-7.32c-0.01-2.75,0.41-5.29,1.26-7.61c0.85-2.32,2.04-4.38,3.58-6.16c1.54-1.78,3.36-3.16,5.47-4.14
		c2.11-0.98,4.44-1.47,7-1.47c2.8-0.01,5.26,0.57,7.4,1.73c2.14,1.16,3.85,2.8,5.13,4.93l0-1.17c-0.01-2.73,2.2-4.95,4.93-4.95l0,0
		c2.73-0.01,4.95,2.2,4.95,4.93l0.07,29.55c0.01,3.76-0.9,7.01-2.72,9.74c-1.82,2.73-4.35,4.84-7.6,6.33
		c-3.24,1.49-7,2.24-11.27,2.25c-3.98,0.01-7.41-0.64-10.28-1.93c-1.33-0.6-2.58-1.32-3.76-2.15c-2.19-1.55-2.41-4.72-0.53-6.62v0
		c1.48-1.5,3.82-1.74,5.57-0.56c0.75,0.51,1.56,0.96,2.44,1.36c2.04,0.92,4.22,1.38,6.55,1.37c1.85,0,3.56-0.31,5.12-0.93
		c1.56-0.62,2.81-1.6,3.73-2.96c0.92-1.36,1.38-3.17,1.37-5.46l0-2.07c0-0.45-0.57-0.63-0.83-0.27c-1.58,2.13-3.86,3.62-6.83,4.47
		C-267.83-92.46-269.37-92.26-270.91-92.29z M-266.59-101.33c0.9,0,1.74-0.13,2.52-0.4c0.78-0.26,1.5-0.62,2.17-1.07
		c0.66-0.45,1.28-1,1.85-1.64c0.01-0.01,0.01-0.01,0.02-0.02c0.9-1.02,1.33-2.37,1.33-3.72l-0.01-4.06c0-2.03-0.67-4.04-2.05-5.53
		c-0.01-0.01-0.02-0.02-0.03-0.03c-0.9-0.97-1.9-1.71-2.99-2.23c-1.09-0.52-2.23-0.78-3.42-0.77c-1.19,0-2.3,0.27-3.34,0.79
		c-1.04,0.52-1.93,1.27-2.66,2.25c-0.73,0.97-1.3,2.05-1.7,3.24c-0.4,1.19-0.6,2.42-0.6,3.7c0,1.38,0.23,2.63,0.68,3.77
		c0.45,1.14,1.08,2.14,1.89,3.02c0.81,0.88,1.76,1.55,2.85,2.02C-268.98-101.56-267.82-101.33-266.59-101.33z"/>
	<path class="st3" d="M-220.14-92.29c-3.18-0.01-6-0.52-8.46-1.53c-2.46-1.01-4.56-2.39-6.28-4.13c-1.73-1.74-3.04-3.75-3.93-6.02
		c-0.9-2.28-1.34-4.66-1.33-7.14c0.01-3.54,0.81-6.76,2.41-9.67c1.6-2.9,3.89-5.25,6.88-7.03c2.99-1.78,6.6-2.67,10.82-2.66
		c4.22,0.01,7.81,0.91,10.77,2.69c2.96,1.78,5.22,4.11,6.77,6.98c1.56,2.88,2.33,5.99,2.32,9.35c0,0.65-0.04,1.3-0.11,1.93
		c0,0.01,0,0.01,0,0.02c-0.11,0.93-0.89,1.62-1.82,1.62l-25.95-0.07c0.14,1.61,0.6,2.98,1.38,4.08c0.78,1.11,1.78,1.95,3.02,2.53
		c1.23,0.58,2.53,0.87,3.91,0.87c1.71,0,3.31-0.39,4.8-1.2c0.43-0.23,0.83-0.49,1.18-0.77c1.72-1.35,3.92-1.93,6.02-1.34l0.05,0.01
		c2.99,0.84,3.84,4.67,1.49,6.7l0,0c-1.74,1.49-3.78,2.66-6.13,3.5C-214.69-92.7-217.29-92.28-220.14-92.29z M-228.33-114.93
		l16.21,0.04c-0.19-1.49-0.63-2.79-1.34-3.9c-0.71-1.11-1.66-1.97-2.84-2.59c-1.18-0.61-2.49-0.92-3.91-0.93
		c-1.47,0-2.79,0.3-3.95,0.91c-1.16,0.61-2.1,1.46-2.82,2.57C-227.68-117.72-228.13-116.42-228.33-114.93z"/>
	<path class="st3" d="M-178.23-92.22c-3.18-0.02-6.28-0.57-9.3-1.63c-1.64-0.58-3.14-1.3-4.5-2.17c-1.89-1.21-2.49-3.7-1.4-5.66v0
		c1.14-2.06,3.75-2.83,5.79-1.67c1.03,0.58,2.04,1.08,3.05,1.48c2.15,0.87,4.17,1.31,6.07,1.33c1.47,0.01,2.61-0.2,3.42-0.65
		c0.81-0.44,1.22-1.13,1.22-2.07c0.01-0.7-0.23-1.25-0.7-1.65c-0.47-0.4-1.19-0.77-2.16-1.1c-0.97-0.33-2.16-0.69-3.58-1.08
		c-2.84-0.95-5.2-1.88-7.09-2.79c-1.89-0.9-3.3-2-4.24-3.29c-0.94-1.29-1.4-2.97-1.39-5.02c0.02-2.48,0.66-4.63,1.93-6.47
		c1.27-1.83,3.07-3.26,5.4-4.27c2.33-1.01,5.11-1.5,8.33-1.48c2.56,0.02,5.06,0.44,7.49,1.26c1.11,0.38,2.19,0.87,3.24,1.47
		c2.11,1.22,2.74,3.99,1.44,6.05l0,0c-1.22,1.94-3.76,2.59-5.77,1.49c-0.78-0.43-1.51-0.78-2.21-1.06
		c-1.65-0.68-3.26-1.02-4.83-1.03c-0.81-0.01-1.54,0.08-2.21,0.26c-0.67,0.18-1.2,0.49-1.61,0.93c-0.41,0.44-0.61,1.01-0.62,1.71
		c-0.01,0.7,0.19,1.26,0.59,1.68c0.4,0.42,1.04,0.79,1.91,1.1c0.87,0.31,1.97,0.68,3.3,1.11c3.07,0.91,5.63,1.82,7.66,2.74
		c2.03,0.92,3.55,2.05,4.56,3.38c1.01,1.33,1.51,3.09,1.49,5.28c-0.03,3.72-1.41,6.63-4.15,8.73
		C-169.82-93.22-173.54-92.19-178.23-92.22z"/>
	<path class="st3" d="M-131.27-98.26c0,0.33-0.03,0.65-0.09,0.97c-0.33,1.53-1.42,2.79-2.85,3.39c-0.2,0.07-0.39,0.14-0.59,0.2
		c-1.1,0.35-2.25,0.63-3.44,0.87c-1.37,0.26-2.72,0.39-4.05,0.39c-1.9,0-3.64-0.32-5.23-0.95c-1.59-0.63-2.85-1.67-3.77-3.12
		c-0.93-1.44-1.38-3.36-1.38-5.74l-0.01-19.21l-0.46,0c-2.38,0-4.31-1.92-4.31-4.3c0-1.2,0.48-2.27,1.26-3.04
		c0.78-0.77,1.86-1.26,3.05-1.26l0.46,0l0-6.19c0-3.14,2.54-5.69,5.69-5.69c1.57,0,2.99,0.64,4.02,1.67
		c1.03,1.03,1.67,2.45,1.67,4.02l0,6.19l3.3,0c2.38,0,4.31,1.92,4.31,4.3c0,1.2-0.48,2.27-1.26,3.04c-0.78,0.77-1.86,1.26-3.05,1.26
		l-3.3,0l0.01,15.23c0,1.21,0.3,2.07,0.92,2.61c0.62,0.53,1.4,0.79,2.35,0.79c0.37,0,0.75-0.03,1.14-0.09
		c0.09-0.01,0.19-0.03,0.29-0.04c0.16-0.01,0.33-0.02,0.49-0.02c1.54,0,2.91,0.7,3.78,1.79
		C-131.65-100.39-131.27-99.37-131.27-98.26z"/>
	<g>
		<g>
			<path class="st0" d="M-74.88-94.33c-0.05-0.15-0.11-0.29-0.18-0.43c-0.06-0.14-0.14-0.27-0.23-0.39l-0.04-0.07
				c-0.1-0.14-0.2-0.26-0.32-0.38l-0.03-0.02c-0.05-0.05-0.1-0.1-0.15-0.15c-0.05-0.05-0.09-0.07-0.13-0.1l-0.08-0.06
				c-0.03-0.03-0.07-0.05-0.1-0.08c-0.13-0.08-0.27-0.16-0.4-0.22c-0.05-0.03-0.09-0.05-0.14-0.06l-0.08-0.04
				c-0.05-0.02-0.1-0.04-0.15-0.05c-0.07-0.02-0.14-0.05-0.21-0.06c-0.11-0.03-0.2-0.05-0.28-0.06c-0.07-0.01-0.12-0.02-0.19-0.03
				h-0.07c-0.1-0.01-0.19-0.01-0.24-0.01c-0.12,0-0.24,0-0.36,0.02c-0.12,0.01-0.24,0.03-0.36,0.06l-33.88,8.16
				c-0.05,0.01-0.09,0.02-0.14,0.04c-0.12,0.03-0.24,0.08-0.35,0.13l-0.17,0.08c-0.07,0.03-0.11,0.06-0.16,0.09
				c-0.04,0.03-0.08,0.05-0.12,0.08c-0.59,0.39-1.04,0.97-1.26,1.64l-0.96,2.83c-0.05,0.18-0.1,0.35-0.12,0.51
				c-0.08,0.48-0.05,0.96,0.1,1.43c0.06,0.21,0.15,0.43,0.26,0.63c0.06,0.1,0.12,0.19,0.18,0.29l0.05,0.06
				c0.06,0.07,0.11,0.14,0.17,0.21c0.09,0.09,0.17,0.18,0.26,0.26h0.01l0.07,0.07c0.04,0.03,0.07,0.06,0.11,0.08
				c0.04,0.04,0.07,0.06,0.11,0.08c0.08,0.06,0.15,0.11,0.22,0.15l0.06,0.03c0.09,0.05,0.18,0.09,0.28,0.13
				c0.05,0.03,0.09,0.04,0.13,0.06c0.07,0.03,0.11,0.04,0.15,0.05c0.16,0.05,0.31,0.09,0.48,0.11c0.11,0.02,0.22,0.03,0.32,0.04
				c0.08,0.01,0.12,0,0.17,0h34.86c0.11,0,0.18-0.01,0.24-0.02c0.11-0.01,0.19-0.02,0.27-0.04c0.06-0.01,0.08-0.02,0.1-0.02
				c0.09-0.02,0.15-0.04,0.21-0.06c0.06-0.02,0.11-0.04,0.15-0.05c0.04-0.02,0.07-0.03,0.1-0.04c0.05-0.02,0.08-0.03,0.11-0.05
				c0.08-0.03,0.13-0.06,0.18-0.08c0.17-0.09,0.33-0.2,0.48-0.31c0.05-0.05,0.1-0.08,0.14-0.12c0.05-0.05,0.1-0.09,0.14-0.13
				c0.05-0.06,0.11-0.11,0.16-0.17v-0.15h0.12c0.06-0.09,0.13-0.18,0.18-0.27c0.04-0.05,0.07-0.1,0.09-0.15
				c0.05-0.09,0.07-0.14,0.09-0.19l0.1-0.24c0.07-0.16,0.11-0.34,0.14-0.52c0.02-0.09,0.03-0.18,0.04-0.28
				c0.01-0.1,0.02-0.19,0.02-0.28v-10.97C-74.73-93.7-74.78-94.02-74.88-94.33z M-101.47-84.1c0,0.09-0.02,0.18-0.03,0.27
				c-0.01,0.01-0.01,0.03-0.01,0.04c-0.02,0.1-0.04,0.2-0.08,0.3c-0.23,0.73-0.72,1.35-1.37,1.73c-0.07,0.05-0.15,0.08-0.22,0.12
				c-0.11,0.05-0.21,0.1-0.32,0.13c-0.09,0.04-0.19,0.07-0.29,0.09c-0.07,0.02-0.13,0.03-0.2,0.04c-0.17,0.03-0.35,0.05-0.53,0.05
				c-1.69,0-3.07-1.38-3.07-3.08v-0.19c0-0.03,0-0.06,0.01-0.09c0-0.02,0.01-0.03,0.01-0.05l0.02-0.16
				c0.03-0.17,0.07-0.33,0.12-0.49c0,0,0-0.01,0-0.02c0.01-0.02,0.02-0.05,0.03-0.08c0.01-0.01,0.01-0.03,0.02-0.04
				c0.01-0.03,0.02-0.05,0.03-0.08c0.01-0.02,0.02-0.05,0.03-0.07c0.02-0.03,0.03-0.06,0.04-0.08c0.06-0.12,0.12-0.23,0.19-0.33
				c0.04-0.05,0.08-0.12,0.12-0.17c0.05-0.07,0.1-0.14,0.16-0.2c0.08-0.1,0.17-0.18,0.26-0.26c0.09-0.08,0.19-0.16,0.29-0.23
				c0.05-0.04,0.11-0.07,0.16-0.1c0.01-0.01,0.02-0.01,0.03-0.02c0.02-0.01,0.03-0.02,0.04-0.02c0.04-0.02,0.07-0.04,0.11-0.06
				c0.04-0.02,0.08-0.03,0.11-0.05c0.07-0.04,0.14-0.07,0.22-0.09c0.08-0.03,0.16-0.06,0.25-0.08c0.02-0.01,0.03-0.02,0.05-0.01
				c0.1-0.04,0.2-0.06,0.3-0.07c0.01-0.01,0.02-0.01,0.03-0.01c0.05-0.01,0.09-0.01,0.14-0.01c0.03-0.01,0.07-0.01,0.1-0.01
				c0.06-0.01,0.13-0.01,0.2-0.01c0.09,0,0.17,0,0.26,0.01c0.02,0,0.05,0.01,0.07,0.01c0.03,0,0.06,0,0.1,0.01
				c0.06,0.01,0.13,0.02,0.19,0.03c0.01,0,0.01,0,0.02,0.01c0.1,0.02,0.2,0.05,0.3,0.08c0.05,0.01,0.1,0.03,0.14,0.05
				c0.03,0.01,0.06,0.02,0.09,0.03c0.02,0.01,0.04,0.02,0.06,0.03c0.14,0.06,0.27,0.13,0.39,0.21c0.07,0.04,0.14,0.08,0.2,0.14
				c0.06,0.04,0.12,0.09,0.18,0.14c0.08,0.07,0.15,0.14,0.22,0.21c0.17,0.17,0.32,0.36,0.43,0.57c0.03,0.04,0.05,0.08,0.07,0.12
				c0,0,0.01,0,0.01,0.01c0.03,0.07,0.06,0.13,0.09,0.19c0.02,0.06,0.05,0.12,0.07,0.19c0.05,0.14,0.09,0.29,0.12,0.44
				c0.01,0.01,0.01,0.01,0.01,0.02c0.01,0.04,0.02,0.09,0.02,0.13v0.05c0.01,0.02,0.01,0.05,0.01,0.07
				c0.01,0.02,0.01,0.04,0.01,0.05c0.01,0.09,0.01,0.19,0.01,0.28C-101.45-84.3-101.46-84.2-101.47-84.1z"/>
		</g>
		<g>
			<path class="st1" d="M-101.44-84.41c0,1.7-1.38,3.07-3.07,3.07c-1.7,0-3.07-1.38-3.07-3.07c0-1.05,0.53-1.98,1.33-2.54
				c0.5-0.34,1.1-0.54,1.74-0.54c0.87,0,1.66,0.36,2.22,0.96C-101.76-85.98-101.44-85.23-101.44-84.41z"/>
		</g>
		<path class="st2" d="M-101.94-130.25L-101.94-130.25z"/>
		<path class="st2" d="M-102.82-129.51L-102.82-129.51z"/>
		<g>
			<path class="st3" d="M-75.39-108.37c-0.08,2.77-0.82,5.45-2.21,7.95c-0.17,0.3-0.36,0.61-0.56,0.92l-0.19,0.3
				c-0.18,0.26-0.42,0.45-0.71,0.58c-0.09,0.03-0.17,0.06-0.27,0.09l-32.14,7.69l-0.06,0.02c-0.47,0.1-0.95,0.05-1.39-0.13
				l-0.03-0.04H-113c-1.85-0.8-3.58-1.81-5.16-3.01c-2.42-1.84-4.33-4-5.68-6.42c-1.48-2.64-2.22-5.46-2.22-8.38
				c0-0.84,0.22-1.66,0.64-2.37c0.84-1.43,2.39-2.32,4.05-2.32c1.68,0,3.13,0.73,3.79,1.91l0.26,0.5c0.1,0.17,0.19,0.41,0.25,0.65
				c0,0.05,0.01,0.09,0.02,0.11l0.01,0.08c0.05,0.26,0.11,0.46,0.16,0.6c0.06,0.19,0.13,0.38,0.22,0.59
				c0.41,0.96,1.08,1.82,1.93,2.51c0.27,0.21,0.57,0.42,0.9,0.62c1.28,0.76,2.8,1.16,4.39,1.16c0.58,0,1.21-0.06,1.87-0.19
				c2.41-0.49,4.49-1.85,5.72-3.73c0.56-0.87,0.86-1.65,1.01-2.62c0.07-0.52,0.11-1.14,0.11-1.81l-0.04-0.5
				c-0.05-0.54-0.13-1.1-0.25-1.63l-0.02-0.1c-0.03-0.15-0.07-0.28-0.11-0.46c-0.02-0.07-0.04-0.14-0.07-0.21v-0.08l-0.04-0.04
				c-0.79-1.95-2.34-3.56-4.35-4.54c-1.66-0.79-3.51-1.08-5.09-0.86c-0.46,0.06-0.85,0.15-1.22,0.26c-1.81,0.53-3.28,1.73-4.15,3.38
				c-0.25,0.48-0.57,0.9-0.95,1.27l-0.12,0.1c-0.04,0.03-0.09,0.07-0.12,0.1c-0.18,0.13-0.35,0.26-0.51,0.37
				c-0.36,0.22-0.75,0.39-1.17,0.5c-0.17,0.04-0.31,0.07-0.47,0.1c-0.2,0.03-0.4,0.05-0.65,0.05c-0.65,0-1.29-0.15-1.9-0.45
				c-1.05-0.5-1.84-1.39-2.22-2.5c-0.39-1.11-0.32-2.31,0.19-3.36c1.88-3.89,5.27-6.73,9.57-8c1.57-0.46,3.19-0.7,4.83-0.7
				c0.96,0,1.91,0.08,2.82,0.24c0,0,0.35,0.06,0.87,0.16c0.17,0.03,0.35,0.08,0.55,0.13l0.11,0.03c0.08,0.02,0.16,0.04,0.23,0.06
				c0.19,0.04,0.34,0.09,0.51,0.14c0.48,0.14,0.98,0.31,1.44,0.5c0.04,0.03,0.09,0.05,0.15,0.08l0.08,0.03
				c0.69,0.34,1.54,0.87,2.43,1.52c0.34,0.29,0.84,0.33,1.17,0c0.26-0.32,0.19-0.82-0.15-1.14c-0.01,0-0.04-0.03-0.11-0.09
				c-1.99-1.75-3.16-2.95-3.81-3.67l-0.2-0.23c-0.15-0.15-0.29-0.31-0.41-0.47l-0.11-0.14c-5.83-6.96-7.33-11.87-7.57-12.78
				c-0.54-2.16-0.7-5.01,1.61-6.31c1.1-0.61,2.23-0.79,3.28-0.5c0.18,0.05,0.33,0.1,0.47,0.16l0.09,0.04h0.01
				c0.21,0.08,0.42,0.2,0.66,0.37c0.09,0.05,0.16,0.1,0.23,0.15c0.15,0.12,0.3,0.25,0.48,0.43c0.14,0.13,0.28,0.29,0.45,0.5
				c0.18,0.21,0.32,0.4,0.43,0.58l0.22,0.37c0.83,1.67,1.78,3.46,2.81,5.32l0.35,0.63c0.04,0.06,0.07,0.12,0.12,0.21l0.05,0.08
				c0.03,0.07,0.07,0.13,0.1,0.2l0.1,0.18c0.04,0.07,0.07,0.14,0.11,0.21l1.04,2.02c1.45,2.83,3.88,7.56,5.96,10.64
				c0.2,0.29,0.49,0.46,0.77,0.46c0.26,0,0.5-0.14,0.63-0.36c0.15-0.3,0.11-0.66-0.12-1.01c-0.62-0.95-1.31-2.14-2.04-3.55
				c-1.6-3.12-2.89-6.45-3.55-9.14l-0.03-0.1c-0.06-0.25-0.11-0.49-0.16-0.72l0.01-0.04l-0.03-0.04c-0.58-3.36-0.64-5.49-0.64-6.25
				c0-2.77,1.58-4.83,3.94-5.13c0.22-0.02,0.4-0.03,0.56-0.03c1.23,0,2.42,0.51,3.28,1.4c0.18,0.19,0.35,0.4,0.51,0.64
				c0.06,0.1,0.11,0.18,0.13,0.21l0.06,0.12c0.03,0.05,0.06,0.1,0.1,0.19l0.04,0.09c0.03,0.07,0.06,0.13,0.09,0.21
				c0.03,0.06,0.04,0.11,0.07,0.18l0.03,0.11c0.1,0.31,0.16,0.59,0.19,0.83c0.01,0.11,0.28,2.11,0.86,5.34
				c0.03,0.15,0.05,0.3,0.08,0.45c0.02,0.16,0.05,0.32,0.07,0.47c0.08,0.49,0.16,0.99,0.26,1.48l0.01,0.1
				c0.01,0.04,0.01,0.07,0.01,0.09l0.01,0.08c0.01,0.03,0.02,0.07,0.02,0.11c0.04,0.21,0.08,0.52,0.14,0.89l0.02,0.13
				c0.32,2.25,1.01,6.94,1.8,9.58c0.08,0.49,0.46,0.75,0.79,0.75c0.19,0,0.37-0.08,0.51-0.24c0.09-0.1,0.22-0.32,0.17-0.7
				c-0.03-0.2-0.07-0.41-0.11-0.65c-0.04-0.24-0.08-0.5-0.12-0.79c-0.38-2.18-1-5.84-0.85-8.67c0.02-0.41,0.09-0.81,0.21-1.18
				c0.01-0.03,0.03-0.06,0.03-0.1c0.01-0.02,0.02-0.05,0.03-0.08c0.02-0.03,0.03-0.06,0.04-0.1c0.03-0.08,0.06-0.15,0.09-0.2
				l0.19-0.36c0.09-0.16,0.2-0.33,0.36-0.54c0.06-0.09,0.12-0.16,0.18-0.24c0.3-0.33,0.6-0.6,0.92-0.82c0.2-0.13,0.43-0.26,0.7-0.37
				c0.68-0.27,1.45-0.37,2.07-0.28c2.68,0.29,3.97,1.88,3.92,4.85v0.1c-0.13,2.3-0.21,5.24-0.21,8.27c0,5.71,0.36,11.8,1.05,18.11
				C-75.76-116.08-75.21-112.09-75.39-108.37z"/>
		</g>
	</g>
</g>
</svg>
